<?xml version="1.0" encoding="UTF-8"?>
<svg width="104px" height="104px" viewBox="0 0 104 104" version="1.1" xmlns="http://www.w3.org/2000/svg" xmlns:xlink="http://www.w3.org/1999/xlink">
    <title>bazzite-installer</title>
    <defs>
        <linearGradient x1="-0.000312076923%" y1="99.9988437%" x2="99.9984572%" y2="99.9988437%" id="linearGradient-1">
            <stop stop-color="#ACABAE" offset="0%"></stop>
            <stop stop-color="#F7F7F7" offset="3.8%"></stop>
            <stop stop-color="#DEDDDA" offset="7.7%"></stop>
            <stop stop-color="#B0AFAD" offset="92.3%"></stop>
            <stop stop-color="#C0BFBC" offset="96.2%"></stop>
            <stop stop-color="#77767B" offset="100%"></stop>
        </linearGradient>
        <linearGradient x1="73.6318768%" y1="26.3681232%" x2="0%" y2="100%" id="linearGradient-2">
            <stop stop-color="#006F84" offset="0%"></stop>
            <stop stop-color="#00B875" offset="100%"></stop>
        </linearGradient>
    </defs>
    <g id="页面-1" stroke="none" stroke-width="1" fill="none" fill-rule="evenodd">
        <g id="bazzite-installer" fill-rule="nonzero">
            <rect id="rect18" fill="url(#linearGradient-1)" x="0" y="4" width="104" height="100" rx="8"></rect>
            <rect id="rect20" fill="#FFFFFF" x="0" y="0" width="104" height="100" rx="8"></rect>
            <g id="g26" transform="translate(12, 76)">
                <rect id="rect22" fill="#E1DEDB" x="0" y="0" width="80" height="8" rx="4"></rect>
                <rect id="rect24" fill="#006F84" x="0" y="0" width="48.125" height="8" rx="4"></rect>
            </g>
            <g id="g1" transform="translate(28, 12)">
                <circle id="Icon_BG_Circle" fill="url(#linearGradient-2)" cx="26" cy="26" r="26"></circle>
                <path d="M25.9693944,10.3479118 C26.6109796,10.3451754 27.2349711,10.5071647 27.7799903,10.8162646 C28.3092228,11.1164112 28.7639804,11.5552737 29.0880691,12.1166118 L37.6973548,27.0282489 C37.1791585,26.3593453 36.4248187,25.9869932 35.6175458,25.9869932 L28.9301043,25.9869932 L26.0063087,20.9228172 L23.0825131,25.9869932 L16.3950477,25.9869932 C15.5860526,25.9869932 14.8303123,26.3610096 14.3392973,26.9869487 L22.9245376,12.1166118 C23.5757799,10.988627 24.7546549,10.355199 25.9693944,10.3479118 Z" id="Icon_Shape_Top" stroke="#979797" stroke-width="0.1" fill="#FFFFFF" opacity="0.400000006"></path>
                <path d="M37.8692121,27.2999932 L43.1003275,36.3605553 L43.1003275,36.3605553 C44.0803568,38.0580157 43.498764,40.2285499 41.8013033,41.2085793 C40.1038429,42.1886086 37.9333084,41.6070157 36.9532791,39.9095553 L33.8762487,34.5799932 L18.1363427,34.5799932 L15.0593275,39.9095553 C14.0792982,41.6070157 11.9087639,42.1886086 10.2113033,41.2085793 C8.51384282,40.2285499 7.93224988,38.0580157 8.91227917,36.3605553 L14.14338,27.2999962 C14.6078247,26.4955517 15.466156,25.9999932 16.3950477,25.9999932 L35.6175458,25.9999932 C36.5464365,25.9999932 37.4047669,26.4955505 37.8692121,27.2999932 Z" id="Icon_Shape_Bottom" fill="#FFFFFF" opacity="0.800000012"></path>
                <path d="M34.3394833,29.5034833 L32.9724691,29.5034833 C32.597105,29.5034833 32.292,29.8088904 32.292,30.186 C32.292,30.5654594 32.5967358,30.8685167 32.9724691,30.8685167 L34.3394833,30.8685167 L34.3394833,32.2355309 C34.3394833,32.6109287 34.6448904,32.916 35.022,32.916 C35.4014594,32.916 35.7045167,32.6112979 35.7045167,32.2355309 L35.7045167,30.8685167 L37.0715309,30.8685167 C37.4469287,30.8685167 37.752,30.5631096 37.752,30.186 C37.752,29.8065406 37.4472642,29.5034833 37.0715309,29.5034833 L35.7045167,29.5034833 L35.7045167,28.1364691 C35.7045167,27.7610713 35.3991096,27.456 35.022,27.456 C34.6425406,27.456 34.3394833,27.7607358 34.3394833,28.1364691 L34.3394833,29.5034833 Z" id="Icon_Deco_Plus" fill="#FFFFFF"></path>
                <path d="M17.082,32.916 C15.5742477,32.916 14.352,31.6937188 14.352,30.186 C14.352,28.6782812 15.5742813,27.456 17.082,27.456 C18.5897523,27.456 19.812,28.6782812 19.812,30.186 C19.812,31.6937522 18.5897187,32.916 17.082,32.916 Z" id="Icon_Deco_Dot" fill="#FFFFFF"></path>
            </g>
        </g>
    </g>
</svg>