<?xml version="1.0" encoding="UTF-8"?>
<svg width="14px" height="16px" viewBox="0 0 14 16" version="1.1" xmlns="http://www.w3.org/2000/svg" xmlns:xlink="http://www.w3.org/1999/xlink">
    <title>bazzite-installer-symbolic</title>
    <g id="bazzite-installer-symbolic" stroke="none" stroke-width="1" fill="none" fill-rule="evenodd">
        <g transform="translate(1, 1)" fill="#000000" fill-rule="nonzero">
            <g id="g8" transform="translate(0, 13)">
                <rect id="rect4" opacity="0.257" x="0" y="0" width="11.9892" height="1.6" rx="0.8"></rect>
                <rect id="rect6" x="0" y="0" width="7.625" height="1.6" rx="0.8"></rect>
            </g>
            <g id="g1" transform="translate(0, 0)">
                <path d="M6,0 C9.31370849,0 12,2.68629151 12,6 C12,9.31370849 9.31370849,12 6,12 C2.68629151,12 0,9.31370849 0,6 C0,2.68629151 2.68629151,0 6,0 Z M8.21943365,5.99999844 L3.78347254,5.99999844 C3.56911291,5.99999844 3.37103647,6.11435808 3.26385691,6.29999911 L2.05667981,8.39089738 C1.8305192,8.78261902 1.96473296,9.28351152 2.35645461,9.50967214 C2.74817628,9.73583275 3.24906881,9.60161902 3.47522942,9.20989738 L4.18530986,7.97999844 L7.81759586,7.97999844 L8.52767978,9.20989738 C8.7538404,9.60161902 9.25473298,9.73583275 9.64645462,9.50967214 C10.0381763,9.28351152 10.17239,8.78261902 9.94622942,8.39089738 L8.73904894,6.29999844 C8.63186928,6.11435782 8.43379303,5.99999844 8.21943365,5.99999844 Z M5.99293716,2.38797964 C5.71261267,2.38966132 5.44056458,2.535837 5.2902779,2.79614119 L3.48850606,5.91696194 C3.5801801,5.8773607 3.68030546,5.85599844 3.78347254,5.85599844 L5.40812206,5.85597965 L6.00145586,4.82834244 L6.59475406,5.85597965 L8.21943365,5.85599844 C8.32264416,5.85599844 8.42281044,5.8773787 8.51451595,5.91701198 L6.71263133,2.79614119 C6.63784164,2.66660162 6.53289756,2.56532566 6.41076698,2.49606106 C6.28499333,2.42473032 6.1409953,2.38734817 5.99293716,2.38797964 Z" id="形状结合"></path>
                <path d="M7.92449614,6.80849614 L7.60903133,6.80849614 C7.52240885,6.80849614 7.452,6.8789747 7.452,6.966 C7.452,7.05356755 7.52232365,7.12350386 7.60903133,7.12350386 L7.92449614,7.12350386 L7.92449614,7.43896867 C7.92449614,7.52559893 7.9949747,7.596 8.082,7.596 C8.16956755,7.596 8.23950386,7.52568413 8.23950386,7.43896867 L8.23950386,7.12350386 L8.55496867,7.12350386 C8.64159893,7.12350386 8.712,7.0530253 8.712,6.966 C8.712,6.87843245 8.64167635,6.80849614 8.55496867,6.80849614 L8.23950386,6.80849614 L8.23950386,6.49303133 C8.23950386,6.40640107 8.1690253,6.336 8.082,6.336 C7.99443245,6.336 7.92449614,6.40632365 7.92449614,6.49303133 L7.92449614,6.80849614 Z" id="Icon_Deco_Plus"></path>
                <path d="M3.942,7.596 C3.59405717,7.596 3.312,7.3139351 3.312,6.966 C3.312,6.6180649 3.59406492,6.336 3.942,6.336 C4.28994283,6.336 4.572,6.6180649 4.572,6.966 C4.572,7.31394281 4.28993508,7.596 3.942,7.596 Z" id="Icon_Deco_Dot"></path>
            </g>
        </g>
    </g>
</svg>