<svg xmlns="http://www.w3.org/2000/svg" viewBox="0 0 512 512" width="512" height="512"><defs><linearGradient id="4035181349100265395" x1="512" y1="0.5" x2="0" y2="512.5" gradientTransform="matrix(0.001953125,0,0,0.001953125,0,-0.000976563)"><stop stop-color="#1c3140" /><stop offset="1" stop-color="#029aa1" /></linearGradient></defs><g transform="matrix(1,0,0,1,0,-0.5)">
<g>
	<g>
		<path d="M512,256.5 C512,397.8848876953125 397.3848876953125,512.5 256,512.5 C114.61510467529297,512.5 0.00000000000002842170943040401,397.8848876953125 0,256.5 C0,115.11510467529297 114.61510467529297,0.5000000000000284 256,0.5 C397.3848876953125,0.5 512,115.11510467529297 512,256.5 C512,256.5 512,256.5 512,256.5 Z" fill="url('#4035181349100265395')"/>
	</g>
	<g>
		<path d="M348.76213414238765,274.9153477165005 C347.4515007625608,275.2241089657176 346.18759268472746,275.70542494062227 345.00349754688926,276.34659361737135 C343.7123708465354,277.0456585724403 342.4960386526494,277.8748058609717 341.3734122373367,278.8211066372687 C340.22541012706995,279.7888420788005 339.1771245745164,280.86902445462033 338.2441779348936,282.04554941307003 C337.3496492468493,283.17353449469147 336.58616688514854,284.3995066173868 335.9684175648598,285.69987630830485 C335.46566692472027,286.7582270806446 335.1049918235915,287.8783301028278 334.89580536842857,289.0311521774993 C334.65321939521436,290.3680968924293 334.52435622921877,291.7231873557064 334.51057680156777,293.08185026318927 C334.4968824321121,294.4331414604062 334.59807333187854,295.7831851374242 334.8130437443271,297.11735128463863 C334.99594721711867,298.252311138281 335.33459224564484,299.3565933361241 335.8194523120235,300.3989531677331 C336.27269908245387,301.37332314850426 336.8180355257453,302.3021586420173 337.4480048734365,303.172757624429 C338.1438943225446,304.1344255813573 338.9070931569274,305.0455689702319 339.73184577203114,305.8992697244954 C340.5493967932596,306.745598768493 341.4262333766656,307.53250048665404 342.35572098300975,308.2540208053024 C343.1802184235273,308.89399866731617 344.06794245594153,309.4480677519997 345.0050852998696,309.90755212342424 C345.62102004532363,310.20956542247495 346.25022386925644,310.4837363389056 346.89079713863794,310.7292142907627 C347.3935194260457,310.9218994560225 347.91291311974726,311.0678593192888 348.4423720332351,311.1653927166541 C349.04645533679997,311.27664883620673 349.6577969397037,311.34418504333576 350.27160523027334,311.36737757794174 C351.26023663513604,311.40474647844394 352.24949180009816,311.42362939781754 353.23883202325567,311.42408304152616 C354.2435110743128,311.42442327430774 355.24807671444273,311.4064476423514 356.2520752999368,311.37015614565746 C356.8566122472104,311.348381247641 357.4585974486227,311.2803913968032 358.0527572960603,311.1668670587072 C358.57631884133536,311.0668953264079 359.08890787940675,310.9161722042005 359.5832944636676,310.71696591062835 C360.2360594077198,310.4538525595966 360.87722808446887,310.1628401204814 361.50501427181206,309.8447224697727 C362.4924548619395,309.3444101645673 363.43969127838557,308.76845277094026 364.33824605434444,308.1220104860778 C365.2254313848546,307.4836203770443 366.05988063423126,306.7749721986297 366.83345656845,306.00287060646417 C367.59177873296454,305.2460794894664 368.2867041891917,304.4282732936517 368.9111731069152,303.5577877221672 C369.5201614330802,302.7088502268448 370.05279585252873,301.8076302940974 370.50278205880295,300.86473184561555 C370.7804970667077,300.28276367284855 371.030029459211,299.6878666543844 371.250528654359,299.0819120705212 C371.4326666033922,298.581429648925 371.57190686922377,298.0663739231876 371.6667751098005,297.5423020287403 C371.7744587851473,296.9475184212033 371.84125782124977,296.3460435689633 371.8667752798628,295.74213038178914 C371.9051932314412,294.83240462950414 371.9243880308646,293.92188500072893 371.9243880308646,293.01136537195384 C371.92435967813276,292.08298352214956 371.9050514677823,291.15477178873607 371.8664066943495,290.22724052088563 C371.8415413485677,289.630075283878 371.7729844430941,289.0355752036588 371.6613030325646,288.4484468337057 C371.56172823851034,287.9249419938942 371.4152580260718,287.41153072660086 371.2237069700836,286.914280516429 C370.9804405313064,286.28280847395274 370.70924665171384,285.66245070233913 370.410947560528,285.0550217764228 C369.4720468472288,283.14302695528306 368.2084222967134,281.40852023516254 366.67635408158935,279.92867775199977 C365.11993086985575,278.4252457959858 363.3255715329219,277.18963374448106 361.3659441223713,276.27179911090354 C359.40073122365754,275.3513560260011 357.297270404725,274.7611088555508 355.14010951177795,274.52476048333097 C353.00736032090407,274.2910772678995 350.8503978970796,274.4230875871241 348.7620774369241,274.91506418918254 C348.7620774369241,274.91506418918254 348.76213414238765,274.9153477165005 348.76213414238765,274.9153477165005 ZM153.54694121375542,275.3021356836099 C151.6888165830209,275.9655896075476 149.93193955751636,276.88410470668816 148.32672129436838,278.0313129404648 C146.77874719670888,279.1376932404605 145.41186199700624,280.47758663949696 144.27491745213845,282.00324713723603 C143.15878381240617,283.5009518414279 142.2876177753586,285.1663913069026 141.69396827709323,286.93741634557136 C141.09586739993648,288.7217671681826 140.77837350932725,290.588227502064 140.75285605071429,292.4699983111133 C140.7083706145323,295.75018255761813 141.48773050603666,298.9890852266334 143.0195151938428,301.8900233326856 C144.52691653230767,304.74480319138 146.7607999174844,307.1513263604396 149.495619367966,308.8667233393321 C152.23636453939213,310.5858061733576 155.38099437519838,311.55393855313457 158.61402802873272,311.6740407250064 C161.90609206985846,311.796354409958 165.17691991487186,311.098536975088 168.1324653823558,309.643418074048 C171.27615957801294,308.0956424455111 173.91857747558367,305.691103967677 175.75523908835152,302.7069222410829 C177.5818354813331,299.7391283934646 178.51679516491316,296.30878807938825 178.44877696134364,292.8245775749067 C178.38016335040646,289.31144728399704 177.31617038444006,285.8898396113127 175.38038762132663,282.95731656204396 C173.42132726541183,279.9895227144258 170.68846415342392,277.6134503793111 167.47714869244237,276.0859753067374 C166.44689547730871,275.5959266904407 165.3655506394855,275.22144380892917 164.25287603303184,274.96944472876 C163.02988094717466,274.69238183368645 161.78590483979127,274.5177290058465 160.5339049093107,274.4473008200746 C159.28978703826834,274.3772695725478 158.041983312093,274.41157637801643 156.8035926928727,274.5497675927717 C155.6925908975948,274.67372573616717 154.59973485066394,274.9261784600451 153.54694121375542,275.3021356836099 C153.54694121375542,275.3021356836099 153.54694121375542,275.3021356836099 153.54694121375542,275.3021356836099 ZM182.9394527389852,237.00581732454856 C184.2448408634305,237.40899317063383 185.49173730218854,237.98166164737302 186.64816017379752,238.70924945062478 C187.81691648373618,239.44454919692407 188.8875156362102,240.32541186824454 189.83429840894757,241.3305729157421 C190.98879329479473,242.55631821658312 192.02352624155156,243.88963378184383 192.92434923605379,245.31226045224992 C194.1614639823435,247.2660472000514 195.32423786587395,249.265935489747 196.41014749351575,251.30761570610434 C197.8027769736857,253.92593378165168 199.23096077952312,256.5251988214346 200.69430197278285,259.10467365442673 C201.5947847345036,260.691972991082 202.5799854588194,262.2297117525645 203.64565123596157,263.71119869417123 C204.44837377846272,264.8272189229764 205.34327105202038,265.8738883698178 206.3209866551431,266.84020617476006 C207.28325001943904,267.7913269154616 208.3273677204191,268.65591511873333 209.44123314160805,269.4239339175209 C210.7117190532171,270.2999766244367 212.11064283984496,270.97318388811107 213.58790522441467,271.4194558865205 C215.2255306600012,271.91421105629456 216.91410595461826,272.22093090882277 218.6211105249003,272.3337747813558 C221.64938074943132,272.53388836234524 224.68346328397968,272.63368997825387 227.71833969501824,272.6330095126908 C237.52501092004104,272.6308547050746 247.33168214506378,272.6119150802374 257.13829666462294,272.5763607545699 C257.13829666462294,272.5763607545699 297.1821356476973,272.4305710076944 297.1821356476973,272.4305710076944 C297.1821356476973,272.4305710076944 300.25588365402297,270.98968517801404 300.25588365402297,270.98968517801404 C301.69356562501076,270.3157407433132 303.0529657035203,269.4860831056094 304.3096721874784,268.5155690963619 C305.55608662979586,267.5530505574799 306.6902809596798,266.4533047967235 307.690848864627,265.23719942469177 C308.97894182267913,263.67167498605295 310.1464222596871,262.0106585467379 311.1832533085966,260.2684965890335 C312.79176048863246,257.5657440782089 314.34160586659027,254.82851464552505 315.83171203866186,252.05873627674362 C316.9047211733382,250.06423500608855 318.0287935779723,248.0976895289806 319.20288020148786,246.160971125718 C320.0118970504469,244.82640804025857 320.9204319879966,243.55478801937772 321.9207447183577,242.35694180662028 C322.7168610743513,241.40360955283893 323.61124799873664,240.53686654195087 324.58913371825014,239.7711726671704 C325.55037638420157,239.01840763808707 326.5922258666382,238.37480062640384 327.6955724243322,237.85208966308255 C327.6955724243322,237.85208966308255 331.30362766128223,236.14270346333 331.30362766128223,236.14270346333 C331.30362766128223,236.14270346333 351.6140220224393,235.97009203217902 351.6140220224393,235.97009203217902 C354.71158632347044,235.94366728614864 357.8092640354288,235.9297177421069 360.9069417473871,235.9282434000537 C363.18811748919325,235.9271659962456 365.4692648782676,235.94854395601692 367.7500436818287,235.9923772793677 C369.4178364240421,236.02452927722004 371.0852322280104,236.07448679063793 372.75197591914747,236.1423065250849 C373.5652173251436,236.1753658103546 374.37485793420205,236.2693834689776 375.174064737961,236.4234522135365 C376.98750546339096,236.77315480746165 378.7480966967603,237.35586015125523 380.41206182018175,238.15699494077603 C382.0822078391339,238.9611351198668 383.64274219697734,239.9754824524651 385.0556722331105,241.175313356448 C386.62941896396916,242.5118044276694 388.0498341212955,244.01892223881623 389.2908898973043,245.6689378181959 C390.76755687450634,247.632194378416 392.1128939980469,249.6908862338487 393.31805521560676,251.83157418962435 C394.10801902880144,253.2348075914847 394.8991169512678,254.63736052778188 395.6914056884694,256.03928970397965 C396.26861060229527,257.0606685140624 396.8479703237374,258.0807998039463 397.4293714418685,259.0997402790948 C398.036516840467,260.1636481868659 398.6456469302909,261.2264219853653 399.25681841680387,262.28800496912936 C400.1641058341547,263.8638498021405 401.07230053892295,265.439127580516 401.98145923657205,267.0138383042555 C403.7437516338489,270.0661232926145 405.50405933990027,273.1195423902452 407.26238235472624,276.17403889168395 C409.05750721541847,279.29255586150964 410.85081750127597,282.41209352967974 412.6421998013717,285.5327653071215 C414.2471912426653,288.3286848946153 415.8504815200514,291.12562518045365 417.45207063352996,293.92347275370935 C418.56860121150737,295.87414070101363 419.6817861671333,297.8267933395434 420.79156879494417,299.7813172583715 C421.3500042003236,300.7648735242434 421.9098572422927,301.74769261908864 422.4710145099241,302.7297178374438 C423.0933002672996,303.81863285465556 423.71672013394686,304.9069241117679 424.3412174044022,305.99459160878087 C424.9322584513426,307.023965889229 425.5244336075548,308.05271640957767 426.11757275664786,309.08084316982695 C426.5691750686343,309.8636053891463 427.0224785445282,310.6452902046577 427.47765330072036,311.4258976163609 C429.1771727498093,314.34072856099124 430.869490605023,317.25981241539046 432.5544934554342,320.1830924740949 C433.5015881082213,321.8261332814536 434.42832549958166,323.48079870884726 435.3344221021972,325.1467485234941 C435.964589919011,326.3052978499876 436.5695238045297,327.47739978227776 437.14882682050813,328.66214703294713 C437.66547029922594,329.71885334684293 438.1497916637005,330.7910402522973 438.6010537429054,331.87729011272063 C440.0499350429511,335.36478953409016 441.05243093366016,339.02138464786833 441.5847251203272,342.760202683844 C442.13958808150085,346.6582496615648 442.2586695550282,350.60597062538545 441.93970132236575,354.53038564367296 C441.61290773572864,358.5514834773719 440.8506161887632,362.5252322489779 439.66632258180243,366.3818275328184 C438.47862664702654,370.2491968547399 436.8782850537468,373.97752437995246 434.89279995180175,377.5023927018241 C433.1928268590042,380.52037088471457 431.2413650352097,383.38961063662305 429.0591119746265,386.07949100721396 C426.8264477569169,388.831577271357 424.3805709961297,391.40351027769225 421.7441071722353,393.7715871424416 C419.1742155625891,396.07989644857287 416.42246953122753,398.1772614301701 413.5155206460354,400.0433248258064 C410.8179850378606,401.77493956728415 407.9524878465487,403.22983164646973 404.9626355735962,404.3858292271019 C402.4170706078276,405.3700659585369 399.7983555940352,406.15339523249213 397.130476943315,406.72867216055613 C394.3939279761941,407.31874921461565 391.61825223919993,407.7095632696396 388.82516792488536,407.8979955251307 C386.08578368458524,408.08285533641583 383.3364759881578,408.06516323177755 380.5997001991826,407.84503262214275 C378.0350821976497,407.6386814401591 375.49422378535866,407.20244630880404 373.00763250171786,406.5415441307275 C370.8325243295464,405.9634319294843 368.7036878156598,405.22348233517107 366.63892847562363,404.32787624331866 C364.3905568445011,403.35259897513004 362.2005351354069,402.2479765445054 360.07989256100825,401.0195093814124 C358.0972994377059,399.8709969219734 356.1845674455395,398.6058980294048 354.3517334515637,397.2309606538731 C352.95947255690703,396.18650272011155 351.712717881808,394.96098424112495 350.64452871153634,393.58678403661986 C350.05482024299005,392.8281783447874 349.5011197438199,392.0422406195072 348.985185083397,391.2316360175679 C348.0475602430285,389.75837136818086 347.1231194229434,388.27671431018337 346.21206109226415,386.7868916654296 C345.0148386396061,384.82913553517733 343.83360712767893,382.8616260651884 342.66845161467785,380.8845900773173 C341.19087735005843,378.3773580049318 339.72348171615243,375.8641151534064 338.266236360228,373.3450316391318 C337.61369823803017,372.2169898520467 336.96050800300117,371.0894017086704 336.30660894967735,369.9621537980755 C335.4829620911135,368.5421922844579 334.65886158884103,367.1225710036217 333.83433579559164,365.70311983917634 C332.98295996533506,364.2374537219097 332.13115884410155,362.77207113196084 331.2789040791594,361.30691536386644 C330.53342570214676,360.02531518139483 329.7873802704982,358.7441119371682 329.0407677842138,357.46319222025954 C328.33166596209054,356.2466332045193 327.62418024567944,355.02911019589806 326.9183389877123,353.81067989985945 C326.1834078269263,352.542008563085 325.4499510081935,351.27248664435683 324.71802523697755,350.0020574382113 C324.0589376337357,348.85808141585903 323.4011826088882,347.71325481155304 322.7447885151666,346.5676910362205 C322.29973568422423,345.79093959604097 321.85751812646106,345.0125436974175 321.4181074891453,344.2326167512773 C320.5632159201465,342.71506513483087 319.6334447864844,341.2409499034901 318.6321964159742,339.8157147817591 C317.77435616286897,338.5945626234684 316.82156261099163,337.44293136353224 315.7827185181249,336.3715383345681 C314.83911125134824,335.3983591685321 313.8110128438307,334.5108052525087 312.7104732065842,333.71942380272435 C311.6255842772869,332.9392700347298 310.4707208059264,332.2612995121144 309.26071127123015,331.6942448762701 C309.26071127123015,331.6942448762701 305.30632741543826,329.84105362086746 305.30632741543826,329.84105362086746 C305.30632741543826,329.84105362086746 256.27915218585525,329.84105362086746 256.27915218585525,329.84105362086746 C256.27915218585525,329.84105362086746 207.25203366173582,329.84105362086746 207.25203366173582,329.84105362086746 C207.25203366173582,329.84105362086746 203.68562858778859,331.59676818436844 203.68562858778859,331.59676818436844 C202.62597358978638,332.1184584493452 201.6104921479165,332.7253770260894 200.64922112923324,333.4116265463881 C199.60399767171327,334.1578704471592 198.6070305637037,334.9694390419795 197.66421717341717,335.84151236644436 C196.73433262882793,336.7015641326294 195.86033131860114,337.6201359372336 195.04751520358195,338.591613939362 C194.32330137541345,339.45722284097826 193.67867366538565,340.38645527273627 193.1214857802051,341.3680268473828 C192.18851078785048,343.01157800391377 191.24532881205067,344.6493452031592 190.2919682055375,346.28115832872834 C188.19122924885698,349.8769651855441 186.08779678265626,353.47112758391586 183.9816708069352,357.0637589347708 C181.4515013745298,361.37978188457237 178.9175326760643,365.69353661583057 176.3797647115386,370.00507983400894 C173.6173297002914,374.6982508221106 170.85169083035169,379.3895505299139 168.08287645445125,384.07897895741894 C166.75177240227038,386.333418073145 165.36637286870746,388.5553649582372 163.92792537396127,390.74283492147003 C162.95491632431606,392.22256399370576 161.87297607912518,393.62766867586424 160.69106410163494,394.94646764244726 C159.66069747557412,396.09617091662153 158.52500045090517,397.146923156841 157.29882985908728,398.0849449354546 C155.8637279866926,399.1828194159127 154.3656546969874,400.1957491119214 152.81223687482378,401.11863053175796 C150.70840747037792,402.36847565462233 148.51988845606874,403.4699792847498 146.2626424198952,404.41503254084785 C144.0883564769457,405.32532534776874 141.8462507995492,406.0643676546646 139.5568244127915,406.6253548059053 C137.24190892015264,407.1925795581403 134.886704195637,407.58038822359424 132.5121487316732,407.78537847445193 C129.99755912538762,408.0025036945167 127.47152919182392,408.05609035760403 124.94999316624927,407.9459116418594 C123.04176925843791,407.8624979049267 121.13786914222484,407.6995264025851 119.24324036930784,407.457337367616 C117.57723384919734,407.24435164639294 115.92585733869163,406.9294662071086 114.29838218108677,406.51443891913414 C112.67951207758082,406.1016231442395 111.08767630383878,405.5892325752907 109.5319477340341,404.98027260185745 C107.77882744549203,404.29402308155875 106.05617216726068,403.5323552946927 104.36878768737887,402.69748075433915 C102.8917521246635,401.9666607396631 101.44114130797846,401.1836716984893 100.01969127594171,400.34993126740744 C98.72126374715137,399.58832018600503 97.45900012776201,398.7666580186666 96.23701156388347,397.8876099221808 C94.98522427889134,396.9871271604601 93.77470439502275,396.030619400718 92.60915194377665,395.02097862159724 C91.27804789159578,393.86792972507146 89.98225716686213,392.674733360328 88.72356599167858,391.44309069127416 C85.95390103382437,388.73290976472003 83.41872734425766,385.79301500518534 81.1452068400354,382.65499135588675 C78.9963532975035,379.68906878856683 77.15061881056218,376.51492375896487 75.63576070363598,373.18030226741905 C74.13850964315276,369.88446731296494 72.98062660585643,366.4447705973971 72.1800163418738,362.9144585510214 C71.34997594229083,359.2544044039645 70.85578782715254,355.5261902896791 70.70359036289193,351.7763146883045 C70.62783186354315,349.9094007107144 70.61249303564355,348.0405020418988 70.65760223192495,346.17256736596414 C70.69365273039875,344.6802496808127 70.82347988927532,343.1916178507944 71.04628983206442,341.71557463369174 C71.25714909840312,340.31874894921646 71.56289078168444,338.9379142054721 71.96140260338993,337.58265362580426 C72.41571260126247,336.03759985951933 72.94089025224963,334.51426428578725 73.5352910979075,333.0175235744763 C74.03774403436321,331.7523112709806 74.6171746376348,330.51913755441 75.27033651993204,329.3247503749312 C76.91177539794458,326.32327348194383 78.56960215493302,323.3308127576664 80.24374590906785,320.3474249075625 C82.63430649012838,316.0873702503188 85.04767684391572,311.84013102784513 87.48378608860045,307.6059907674595 C91.11725954960212,301.29070328806176 94.76147869595309,294.98153999873114 98.41640099855559,288.6786710158584 C99.06678431313719,287.5570369461584 99.71499864373666,286.4342120617232 100.36102981398815,285.31008295162553 C101.01227788688942,284.17688096735435 101.66137115217447,283.04248816834786 102.3083237862092,281.9067911436789 C102.87648417859339,280.909455450156 103.44277329067927,279.9110990582885 104.00719112246688,278.9116085571494 C104.3592469931308,278.28818869050224 104.70686566126923,277.66233048892093 105.05003295051628,277.03397724694184 C105.31432293991742,276.5500528207124 105.58149073159544,276.0676594419996 105.85150797281861,275.5868538162672 C106.12142597948048,275.10627501238923 106.39420761205335,274.62728396149157 106.66981034143959,274.1498806635742 C106.91035491796472,273.73326562261946 107.1532953003263,273.3180682182543 107.39865984125612,272.9042884504787 C107.54802203233751,272.6524027812367 107.70329576799756,272.40408955620046 107.86435346094325,272.1595755972244 C108.07287362690909,271.84293228856893 108.27215080231065,271.52033490623717 108.46195816529362,271.19212368301055 C109.16081047487401,269.98373025402634 109.85828767696248,268.77454294855204 110.55440394792492,267.56461847205105 C111.3784619210997,266.1322384619084 112.19964209199762,264.6982139933218 113.01793028425269,263.2626017717548 C113.93750861083547,261.6492179218508 114.85480454250896,260.0345865517477 115.76980390290728,258.41865095598234 C117.42486626854597,255.49565442459584 119.12130944623541,252.59630407152395 120.85862308680333,249.7213937732571 C121.93917404813638,247.93330039004934 123.11646453034447,246.20548491463182 124.38524927804605,244.54560258458844 C125.30272950247621,243.34531803689686 126.32365466885025,242.22776676057492 127.43630092257209,241.2058208958564 C128.43217645040772,240.29104835731238 129.53624600276243,239.5016515987536 130.72389940844056,238.8550959029639 C131.9510339931394,238.1871055419394 133.24088482056257,237.64137216040285 134.57482414592266,237.22589122871972 C135.90331974677864,236.81205475548057 137.2697513027726,236.53153282712844 138.6538466106731,236.3885216479685 C140.74715715162404,236.1721903043939 142.8491436285034,236.05055708500532 144.95342667665793,236.02384881165705 C149.68532749638769,235.96391113664828 154.41751184343536,235.9285269273716 159.1498096014102,235.917696183827 C163.2865865808214,235.90822637140838 167.42339191296435,235.90811296048122 171.56016889237554,235.91746936197268 C173.32662914122585,235.92149544988717 175.0928058627582,235.9638544311847 176.8574515367738,236.04460301132895 C177.95070452194977,236.09456052474684 179.04066859023789,236.20099667989479 180.1229490682103,236.363344422137 C181.07659320204135,236.50641230676052 182.01807401393364,236.72115589735478 182.9394243862534,237.0057039136214 C182.9394243862534,237.0057039136214 182.9394527389852,237.00581732454856 182.9394527389852,237.00581732454856 ZM260.2988040302328,191.05343915236756 C260.6215148234918,191.38114002642197 260.9162698232036,191.73523729377496 261.1800069343348,192.11201674656166 C261.64448138655484,192.77555572869488 262.09747298239904,193.44706182846164 262.5388399582084,194.12622316581235 C263.05330027657817,194.9179448483781 263.5534991708564,195.7188528160446 264.03915311372526,196.52857848329842 C264.53680026214215,197.3582928264658 265.02055457198094,198.19628616731643 265.4901608686554,199.04216156760538 C266.59299707717713,201.02866736789503 267.7048778071406,203.01012638192572 268.8257180003504,204.98651025696557 C270.29952135164143,207.58526494757632 271.77859831104587,210.1810142486171 273.26297723129545,212.7737014546243 C274.8938547167154,215.62230041778798 276.5302893375666,218.467723874991 278.17230944658087,221.3099151207697 C279.7866856420977,224.10430366074672 281.40678908943664,226.89540328383583 283.03264814132933,229.68310057910992 C283.992359759764,231.3286364268664 284.9135683684248,232.99634411088442 285.795565149017,234.68480599457433 C286.29604757061315,235.64290150729687 286.6862095128058,236.65475379949737 286.9585942071336,237.7007994862393 C287.1568648605566,238.4623538621782 287.20220087869234,239.2556632977243 287.0919654574842,240.03479636737438 C286.97574760986794,240.85611830193125 286.72179219120505,241.65197948333866 286.3407598286495,242.38875357169115 C285.92028881617097,243.20185321402823 285.26134297658814,243.86700830187362 284.4522127167019,244.29502114100887 C283.5083219226073,244.79436945333327 282.47812541293723,245.10982194725352 281.41645737097775,245.22453710008483 C279.41044489121504,245.441322087368 277.394650718984,245.55552689102706 275.3769569137229,245.56675457281676 C269.0689844391276,245.60185525477561 262.76092690633686,245.61920712663243 256.45286937354615,245.6187534829237 C251.02403005363198,245.61841325014223 245.5951907337178,245.61036107431323 240.16635141380368,245.5945969554367 C238.1076028529074,245.58858617629687 236.0490811138655,245.54611378407208 233.99180689502248,245.4672364842262 C232.8679613122427,245.42414033190198 231.74655406439706,245.3317104262594 230.6307890101781,245.19028700007982 C229.99282419212147,245.10942500900842 229.37918601794257,244.894568007487 228.83010701405453,244.55983565594818 C228.57294773669918,244.40298834367366 228.329000832359,244.2254435371908 228.10070463596804,244.02895910587074 C227.8354931827837,243.8006629094798 227.58235999334283,243.558700696365 227.34232576598993,243.304093164871 C227.10416281893532,243.0514703246024 226.87935400855486,242.78654239873595 226.66886332772947,242.51038679107978 C226.49143193217378,242.2776675685293 226.33464132536284,242.02986469266534 226.20019267120415,241.76992684759432 C225.77969330599387,240.9567704997936 225.59701665505662,240.04148761207733 225.6731153871869,239.12915340846746 C225.76268166691852,238.0556055718871 226.03534988856427,237.00525026991272 226.47932531569853,236.0236786952663 C227.30081736664613,234.2073459911935 228.21181899186178,232.4328052137824 229.20895621626215,230.7066341968088 C232.18253402116596,225.55902562354163 235.17167747582369,220.42043321898439 238.17641493296713,215.2909136886006 C238.51182775006902,214.71824521186147 238.84491564316397,214.14427250945988 239.1756219067883,213.56888217046873 C239.7972839040644,212.48750897991368 240.41815202485031,211.40562544018638 241.03822626914604,210.3232882567504 C241.76538878142094,209.05404986534018 242.4915873008149,207.78424441929405 243.2167651218644,206.5138719186121 C243.968254278017,205.19745458149964 244.71883614675227,203.8804985424831 245.4684823753384,202.56303215429426 C247.1232612136592,199.65475069070794 248.79232982880325,196.75460646114595 250.475631515307,193.86274122926733 C251.06120048501157,192.85681465801133 251.72059996830308,191.89577046118245 252.44844294614103,190.9874906982189 C252.87798683279306,190.45142559822352 253.42734936399899,190.02372463913798 254.05235698362657,189.73872297916262 C254.6956521152601,189.4453572633086 255.39443354301102,189.2935567372931 256.10146561571344,189.29352838456128 C256.55819977215424,189.2935567372931 257.0145653430817,189.31930101776038 257.4684075208797,189.37061946230432 C257.7990287263087,189.40798836280646 258.1226184542532,189.4922810344247 258.42945171770856,189.620917378566 C258.73659686121357,189.74975219182983 259.0238667397323,189.92159809922242 259.28258541733624,190.13135160902118 C259.6382704376696,190.4196421858844 259.9775392262952,190.72760955861145 260.2988040302328,191.0538077378809 C260.2988040302328,191.0538077378809 260.2988040302328,191.05343915236756 260.2988040302328,191.05343915236756 ZM282.6460302906107,84.43630851736685 C284.41010890999047,84.90599987223669 286.12975879865184,85.528994447907 287.7853315134628,86.29823241416153 C289.6703912393999,87.1740766519548 291.5018926549816,88.16083677651926 293.2701958313984,89.25338094340043 C295.04388602685566,90.34929908536486 296.75117412445564,91.54915834207958 298.3831290136837,92.8467211125502 C299.8271052911293,93.99477992828054 301.17048607617625,95.263989966959 302.39858465375596,96.64054344820278 C302.8547801082927,97.15188496607539 303.28636539163375,97.68466114918283 303.69189451445783,98.23705742269055 C304.28285050320295,99.04199147827148 304.8608209407872,99.85633864080745 305.4256357108199,100.67984373571232 C306.05143720693763,101.5922629975176 306.6626653989142,102.5146057154501 307.2590934648952,103.44650330399656 C307.8306561850944,104.33952929725592 308.38600114270855,105.24284733215586 308.92490151588316,106.1560037649877 C309.4497672868206,107.04540060857767 309.9753135233211,107.93437216119071 310.5015402253846,108.82297512829052 C311.0226917884573,109.7030722758526 311.5445521698248,110.58277248516964 312.0670930167553,111.46207575624157 C312.52014131806305,112.22442400867061 312.9737850267385,112.98643202831818 313.42796743731793,113.74812816791598 C313.69573063636363,114.19715038130926 313.9649681774625,114.64529366001699 314.2356800606145,115.09255800403918 C314.56258705817874,115.63267754468086 314.8850993823152,116.175462242111 315.20313197482847,116.72082703813425 C316.11779110244527,118.2892718081477 317.03159964810834,119.85822692733348 317.94455761181763,121.42766404295969 C319.03284886892993,123.29849069753709 320.1196657839891,125.17016793406833 321.20500835699505,127.04272410528506 C322.40126681677214,129.1066045106357 323.5962777563504,131.17119373428113 324.79012623392515,133.23649177622138 C326.02967931514894,135.3808939398619 327.27087685481666,137.52433211062146 328.5137188529284,139.66680628850014 C329.73886874640175,141.77880127970212 330.96566309831906,143.88983227802322 332.1941586141439,145.99987093073156 C333.2558550088351,147.82337687594782 334.31894068738416,149.64606059194205 335.38341564979106,151.46795043144613 C336.0005412099804,152.5241747489015 336.6213809780345,153.57824425874065 337.2459066012216,154.6301022555 C337.84953626107784,155.64674615937338 338.44834595652935,156.666225336426 339.04239239303985,157.6884830811943 C339.9977093380467,159.33248788143402 340.9510415918281,160.97762679094546 341.90233244892045,162.62395651519216 C342.98639914899576,164.50005677788295 344.0681409250641,166.37751797169977 345.1475577771255,168.256283391179 C346.21943280253015,170.12192149583848 347.28889784573244,171.98889217889217 348.356009612196,173.85725214580373 C349.4422027671557,175.75901163076645 350.5312595480264,177.65912665728524 351.62317995480817,179.5575972253601 C352.7611451980205,181.5360508498208 353.90174724528947,183.5129734267647 355.0449860966151,185.48836495619184 C356.075210959017,187.26846286903418 357.1078174508894,189.04719985075053 358.14280557223236,190.82451919587726 C358.8460100261429,192.03206204290763 359.5541195026534,193.23674126402705 360.26716235449584,194.43847180104 C361.75896969047494,196.95279205637354 363.2430650834066,199.4716771015256 364.71939182782717,201.99509858376445 C365.3930527352102,203.14658808004162 366.03756703431077,204.31483404080802 366.65236767049316,205.4987874149873 C367.0031760209582,206.17437630813214 367.32600022514436,206.86414156717314 367.619961348366,207.5663253227391 C367.7271913800042,207.82246390174998 367.66898322163473,208.11795607248843 367.4726405539737,208.31432709288129 C367.3239588284553,208.46295211293608 367.12313642917104,208.5477834864584 366.9128725702,208.55067546510116 C364.20637749877886,208.58787424921258 361.4998257218941,208.62201093829037 358.79321723954575,208.6530288268711 C355.5033080060362,208.69079466561828 352.21317195067235,208.70967758499194 348.9230358953085,208.70973429045551 C344.56836817207414,208.70984770138267 340.21372880157156,208.69901695783807 335.8591177838008,208.67718535435802 C335.8591177838008,208.67718535435802 304.7647051800116,208.52067827486502 304.7647051800116,208.52067827486502 C304.7647051800116,208.52067827486502 302.05665070834186,207.07956562333038 302.05665070834186,207.07956562333038 C301.6597408159827,206.86839447694194 301.2720455614559,206.6402683969418 300.894613995838,206.39598125982008 C300.4682172624149,206.1199957685547 300.0500995266751,205.83136495890994 299.6408278432545,205.53054247459454 C299.24655475495194,205.24072085021453 298.86101430804143,204.93916119487255 298.48480190989056,204.62620374135008 C298.18619093865493,204.37780545811853 297.90255020980567,204.11191353937113 297.63541077085944,203.8299172689658 C297.24468177403094,203.41741337412083 296.89639681669536,202.96668999682004 296.5958295069661,202.48452343996166 C295.60475976716924,200.89461565198144 294.62154373407884,199.2997744886694 293.6462381131585,197.7001417136845 C292.485647389976,195.79656765388705 291.34019702557055,193.88377895625712 290.2100571363329,191.9619740899173 C288.94804869152966,189.81589911510105 287.6983169795925,187.66259419367776 286.4609754114485,185.50220108930642 C281.6020543532896,177.01866679883096 276.7240235539028,168.54607666282726 271.826883013288,160.08454409222253 C270.2532780460883,157.3656021715446 268.5703732978297,154.71138953754826 266.7822515618901,152.1284273185458 C265.80822181390045,150.72139465062537 264.64142184245543,149.45811033289147 263.3160450420966,148.375574680333 C262.1948079106417,147.45978144344446 260.87532847849565,146.81827253391384 259.4625685587532,146.50211122169884 C258.4263045644796,146.27018587563856 257.36871931589826,146.14665302321987 256.30688115754805,146.13346900293647 C255.2953407453972,146.12090874275253 254.2859551408626,146.23018017107972 253.30052759469243,146.45890165844753 C252.35178848346135,146.67914567900942 251.43452090451967,147.017875765731 250.57035799222479,147.46712480097864 C249.72017297670345,147.90911553688744 248.93219385473424,148.46154016312698 248.2268345932075,149.11008055014207 C247.53593522489484,149.74538021141018 246.9255292621403,150.46301620580294 246.40933942713127,151.24694088712585 C245.3271440073542,152.89035027999796 244.2722239155613,154.55156518843557 243.24497608999764,156.22987679414388 C241.7607105806752,158.65485759160015 240.3104116440399,161.1004791778011 238.89453292380034,163.56603273445205 C236.77428728764676,167.25809711570236 234.67023106134656,170.95946119298048 232.5824209503633,174.66998320262752 C232.32996822648545,175.11866518323933 232.07572928050467,175.56635481823838 231.81976081788457,176.01305210762473 C231.3825616936486,176.77591070922603 230.94473880931326,177.53837237258222 230.50620710668306,178.30049380315694 C229.99974225867874,179.18064765618266 229.49251188691608,180.06034786549964 228.98443093319958,180.93956607837623 C228.4704809640021,181.82901962742977 227.9557087655827,182.71801953277463 227.44017104340486,183.606537441679 C226.87368346219642,184.5829488191393 226.30764952469667,185.5595870184539 225.74209758363736,186.5365370978182 C225.07691414306026,187.6854748482341 224.4120992879964,188.8346394205043 223.7476246657141,189.9840024618971 C223.09091869194282,191.11986960295673 222.43458130368487,192.25590686040715 221.77855579547662,193.39217093971195 C221.24019412420608,194.32460723016248 220.70234280210775,195.25732704793091 220.16497347644992,196.19033039301735 C219.22346431182586,197.82503549722918 218.21382353270513,199.4195647804915 217.138744648608,200.96969368576725 C216.30922877456317,202.16578202915355 215.3737020363473,203.28477929479686 214.34350552667718,204.3131045241687 C213.4874231429431,205.16762750765423 212.53590546399641,205.92090288590975 211.50772199828356,206.55798876928083 C210.53525165054242,207.16059773079252 209.48523658134957,207.62802086711895 208.38665328259663,207.94744274349006 C207.52104438098036,208.19904488541414 206.63034331172793,208.35458797202625 205.7306827792292,208.41118002468352 C204.01554097492283,208.51920393281182 202.29849953758634,208.59524595947852 200.5804941073689,208.63919269375646 C197.75403862773493,208.7114921598266 194.92687432980608,208.75260362092536 192.09948321002292,208.76241366612544 C186.53426725018824,208.78163681828056 180.96902293762173,208.7912767470899 175.40377862505522,208.79122004162633 C171.55333588401362,208.79110663069918 167.70289314297202,208.78123988003546 163.85247875466217,208.7614496732445 C160.59676291569406,208.74483497241425 157.34110378218952,208.71449754939658 154.08564311780748,208.6704374041915 C151.17954481456914,208.63108381246388 148.2734465113308,208.59053940600103 145.36737656082425,208.54880418480292 C145.24622533787613,208.54704631543177 145.13431710549227,208.4836496071444 145.07060851715516,208.3805590743479 C144.96040144867882,208.20222039137485 144.95342667665793,207.97874415938867 145.05232100514917,207.79394105356698 C145.98472894286792,206.05092851390884 146.9221269613821,204.31058113103916 147.86445835522812,202.57289890495798 C148.93100306705583,200.60612660599566 150.02011655339015,198.6516593926312 151.1316286978403,196.7099509085732 C152.39752146689906,194.49846618151236 153.6806810496193,192.2969049105787 154.98090897687842,190.1054372121631 C155.37342419580983,189.4438829212554 155.7654574183008,188.78210180849334 156.15700864435127,188.12000881568156 C156.5382394760294,187.47546616384915 156.91898831126701,186.83063998469885 157.2992551500642,186.1855302782306 C157.62522650747928,185.63248189189164 157.95082927938108,185.0791783309666 158.27600676030596,184.52567630091903 C158.45573472713681,184.2197786776128 158.63432858469594,183.9132572942072 158.8118166857152,183.60608379797037 C159.0026589234086,183.27574611985926 159.19364292476098,182.94555020540713 159.38482539523585,182.61541099641857 C159.7990588067201,181.90021333696 160.21332057093616,181.18501567750138 160.62763904061575,180.46984637077458 C161.11958728994244,179.620653700866 161.61159224473278,178.7714893836892 162.10365390498663,177.9223534192442 C162.6274139193842,177.01858174063557 163.15123063924534,176.11486676749053 163.67510406457006,175.21115179434554 C164.28434756532118,174.16014437953993 164.89214507675086,173.10825803004883 165.49843989339558,172.0555210986039 C166.25313290824073,170.74517124609497 167.00686193020493,169.43425433895015 167.7596269592882,168.12279872990126 C168.53144502413585,166.7781704246555 169.3022707433708,165.43297506477393 170.072104116993,164.0872126502565 C170.73898872147765,162.92143337715606 171.40456910029985,161.754916933029 172.06884525345964,160.58763496514354 C172.74437744114095,159.40059114319894 173.42280160746503,158.21519177969827 174.10411775243193,157.0314652273733 C174.9139568306129,155.62437585398936 175.72583730548297,154.21850564807244 176.53978752977383,152.81379790415895 C177.35005189893172,151.415441172167 178.16235766477865,150.01830360764205 178.97670482731462,148.6223285051206 C179.65257724777746,147.46375082589537 180.33139835234664,146.30687431057765 181.0131397882904,145.15172731189926 C181.7599790964291,143.8862598338174 182.50506053519672,142.61977165739097 183.24838410459319,141.35223442988826 C184.29856929017677,139.56141918442847 185.34781883561124,137.7700652370646 186.39616109362834,135.97817258779668 C187.54158310530198,134.02033139934895 188.68601277136293,132.06195150899714 189.8294500918111,130.10294785854592 C190.90546461605743,128.25945323741615 191.98034503103207,126.41530650345521 193.0541196894668,124.57047930393122 C194.0929354296017,122.78573154307492 195.13200634432275,121.00112554587758 196.17130408089815,119.21666131233923 C197.20765313336716,117.43724386505988 198.24420065495872,115.65796818143951 199.28103170386817,113.87883426147806 C200.1842646805727,112.32884711986134 201.08772447913162,110.77900174190353 201.99141109954485,109.22924142214111 C202.53632225185942,108.29473538226978 203.08174375334625,107.36048451698451 203.62764725127352,106.42654553174901 C204.95228688060575,104.1604534432563 206.38665158197387,101.96030980891231 207.92560951092344,99.83391162995986 C209.24316095730762,98.01338272158176 210.6998959640598,96.29773056810313 212.28263051089652,94.70235070288703 C213.7674063693912,93.20572340250322 215.37557331664556,91.83679680611158 217.09009136085257,90.61008751238961 C218.88430893412743,89.32633252230175 220.7703893584091,88.17611889895522 222.73313556945686,87.1686612801825 C224.2668198902931,86.38144768197168 225.8595345987207,85.71498836846388 227.49679144879389,85.1752657660673 C228.96671047582947,84.69071757973836 230.48457397232562,84.36596538979035 232.02409895591103,84.2066230371181 C234.30017120599462,83.9710968941202 236.58602514854647,83.84189349534307 238.87414730964173,83.81949483722724 C244.58917910426646,83.76352654466939 250.3044093680138,83.73168642686676 256.0197246899565,83.72397448381929 C260.0711315939413,83.71858746477875 264.12253849792614,83.72417295294179 268.17388869644736,83.74070259557669 C270.61052246667026,83.75062605170393 273.04695776777055,83.78816506859681 275.48271260330785,83.85331964625533 C277.0801055124812,83.8960472130662 278.67673289789616,83.9635267147317 280.27199935218505,84.05575815125178 C281.0741831927822,84.10211486773204 281.86956237774916,84.22964545533341 282.6460302906107,84.43639357556225 C282.6460302906107,84.43639357556225 282.6460302906107,84.43630851736685 282.6460302906107,84.43630851736685 Z" transform="matrix(1,0,0,1,0,0)" fill="#ffffff" stroke="#000000" stroke-width="0.15399999916553497"/>
	</g>
</g></g></svg>