<?xml version='1.0' encoding='utf-8'?>
<svg xmlns="http://www.w3.org/2000/svg" width="600px" height="600px" viewBox="-102.4 -102.4 1228.8 1228.8" version="1.1">
    <title>AeroCoreIcon</title>
    <defs>
        <linearGradient x1="73.6318768%" y1="26.3681232%" x2="0%" y2="100%" id="linearGradient-1">
            <stop stop-color="#006F84" offset="0%" />
            <stop stop-color="#00B875" offset="100%" />
        </linearGradient>
    </defs>
    <g id="Root_AeroCore_Icon" stroke="none" stroke-width="1" fill="none" fill-rule="evenodd">
        <g id="Group_Symbol_Elements">
            <circle id="Icon_Base_Circle" fill="url(#linearGradient-1)" cx="512" cy="512" r="512" />
            <path d="M512.125099,203.775657 C524.425722,203.720223 536.565487,206.928767 547.230065,213.049297 C557.526611,218.958608 566.447921,227.582512 572.811208,238.604049 L741.889,531.455 L741.661543,531.166142 C732.09877,519.141785 717.545473,511.911367 701.936588,511.746739 L701.39167,511.743866 L569.700515,511.743867 L512.124234,412.018554 L454.547952,511.743867 L322.856323,511.743866 C306.925343,511.743866 292.043073,519.10911 282.373856,531.435299 L451.437046,238.604049 C464.26151,216.391425 487.47628,203.917765 511.396183,203.77566 Z" id="Symbol_Top_Wing" stroke="#979797" stroke-width="0.512" fill="#FFFFFF" opacity="0.400000006" />
            <path d="M745.732175,537.599874 L848.744911,716.023241 L848.744911,716.023241 C868.043949,749.450156 856.591042,792.192986 823.164127,811.492024 C789.737212,830.791063 746.994382,819.338156 727.695344,785.911241 L667.101514,680.959867 L357.146442,680.959867 L296.552911,785.911241 C277.253872,819.338156 234.511042,830.791063 201.084127,811.492024 C167.657212,792.192986 156.204305,749.450156 175.503344,716.023241 L278.51579,537.599923 C287.66178,521.758556 304.564301,511.999866 322.856323,511.999866 L701.39167,511.999866 C719.683671,511.999866 736.586177,521.758535 745.732175,537.599874 Z" id="Symbol_Bottom_Gamepad" fill="#FFFFFF" opacity="0.800000012" />
            <path d="M336.384,648.192 C306.692879,648.192 282.624,624.12246 282.624,594.432 C282.624,564.74154 306.69354,540.672 336.384,540.672 C366.075121,540.672 390.144,564.74154 390.144,594.432 C390.144,624.123121 366.07446,648.192 336.384,648.192 Z" id="Icon_Left_Stick" fill="#FFFFFF" fill-rule="nonzero" />
            <path d="M676.223669,580.991669 L649.304007,580.991669 C641.912222,580.991669 635.904,587.005841 635.904,594.432 C635.904,601.904432 641.90495,607.872331 649.304007,607.872331 L676.223669,607.872331 L676.223669,634.791993 C676.223669,642.184439 682.237841,648.192 689.664,648.192 C697.136432,648.192 703.104331,642.191711 703.104331,634.791993 L703.104331,607.872331 L730.023993,607.872331 C737.416439,607.872331 743.424,601.858159 743.424,594.432 C743.424,586.959568 737.42305,580.991669 730.023993,580.991669 L703.104331,580.991669 L703.104331,554.072007 C703.104331,546.679561 697.090159,540.672 689.664,540.672 C682.191568,540.672 676.223669,546.67295 676.223669,554.072007 L676.223669,580.991669 Z" id="Icon_Right_Cross" fill="#FFFFFF" fill-rule="nonzero" />
        </g>
    </g>
</svg>
