<svg xmlns="http://www.w3.org/2000/svg" viewBox="0 0 512 512" width="512" height="512"><defs><clipPath id="artboard-17405248760632631074"><rect x="0" y="0" width="512" height="512"/></clipPath></defs><g>
<rect fill="#ffffff" fill-opacity="0" x="0" y="0" width="512" height="512"/>
<g clip-path="url(#artboard-17405248760632631074)">
	<g transform="matrix(1.485833305,0,0,1.485833305,-41.176226577,-34.867781866)">
		<path d="M269.6166956799723,217.64240311779594 C268.6292018003048,217.87503861188105 267.67691299816283,218.23768509008022 266.78475908269206,218.72077224005642 C265.8119624683993,219.24748121546162 264.8955196129125,219.87220044310396 264.0496791732155,220.58518871221185 C263.1847194711488,221.31432688338845 262.3948909933886,222.12818795351285 261.69196436961715,223.0146381337292 C261.01798366820435,223.86451604894336 260.4427395373757,224.78822208790024 259.9772976507709,225.7679828134025 C259.598501270503,226.56539490919766 259.3267513972012,227.40933410380984 259.1691403159009,228.27792539761157 C258.9863644401073,229.28524349569142 258.8892727669561,230.30623346853844 258.87889068705476,231.32991509173024 C258.8685726940664,232.34804251579789 258.9448147581977,233.3652299984753 259.10678374958,234.3704545907314 C259.2445919747722,235.2255876328092 259.4997433376145,236.05760666160876 259.86506010385415,236.84297041776534 C260.20655790077285,237.5771073681537 260.61744046213494,238.27693645779817 261.0920895019033,238.93288737436177 C261.6164058992242,239.6574540124131 262.19143640700963,240.3439530241596 262.8128444774818,240.98717200734626 C263.42882652265575,241.62483679140877 264.08947714617057,242.2177261856088 264.7897975688145,242.76135410603837 C265.41101337854775,243.24354403923297 266.07986712692286,243.66100619032676 266.7859553717342,244.00720369419668 C267.2500300708623,244.23475495985275 267.7241023284139,244.44132844266295 268.2067408699993,244.62628327349756 C268.58551588796286,244.77146149368144 268.97685194086876,244.88143463633986 269.37577161180957,244.9549209632134 C269.83091686773037,245.0387466453796 270.29153087355803,245.08963165427866 270.75400339986186,245.10710601921545 C271.498885589325,245.1352615363141 272.2442377494833,245.14948883099368 272.9896539965546,245.14983062786285 C273.74662725026496,245.15008697551474 274.50351505475805,245.1365432745735 275.25997561316467,245.10919952503917 C275.71546266595465,245.09279327531857 276.1690271113555,245.04156646955033 276.616695560763,244.95603180303823 C277.0111718724045,244.88070831799286 277.3973809722727,244.76714630820805 277.7698754727651,244.61705475802972 C278.2616998052097,244.41881257390577 278.7447869551859,244.1995498823273 279.2177910975213,243.95986482781535 C279.96177607020286,243.5829056057193 280.6754692953534,243.14895175568762 281.3524834439802,242.6618912171072 C282.02093130857315,242.18089757295473 282.64964528712403,241.64696813868812 283.2324943982919,241.06522986734507 C283.80385058973366,240.4950272403368 284.3274406687076,239.87885293442395 284.79794542143713,239.22298746707764 C285.25678635600593,238.58335735101736 285.658098605031,237.90433514578416 285.9971397369525,237.19391035319512 C286.20638350780314,236.7554276946468 286.39439314815604,236.3072038253269 286.5605277888815,235.85064865732073 C286.69775923185694,235.47356126139874 286.80266950839064,235.08549364105437 286.87414777865774,234.69063280793506 C286.95528181047916,234.24249438783244 287.0056113994658,233.78931446390942 287.02483747335714,233.33429738181457 C287.05378339571575,232.64886648528426 287.0682456757429,231.9628374442329 287.0682456757429,231.27680840318152 C287.0682243134386,230.57732111040622 287.05367658419414,229.87796199145686 287.02455976340093,229.17911556781127 C287.00582502250904,228.72918271414545 286.95417097065433,228.28125791708607 286.87002485392327,227.83888731915084 C286.7950004411384,227.444453732118 286.6846427770022,227.0576251254244 286.54031904899125,226.68297303219532 C286.3570304778939,226.20719179029783 286.1527000370377,225.73978457169522 285.927947233248,225.28211856386423 C285.2205345255686,223.84153020949105 284.26845934646985,222.53466988018425 283.1141258700343,221.41968576831295 C281.94144217418466,220.28692821924432 280.5894860204505,219.35595899681738 279.1130089948135,218.6644184812505 C277.63232359522476,217.97091263368583 276.0474755997536,217.526192182275 274.4221673998934,217.34811601343262 C272.8152521440559,217.17204790119666 271.1900934803259,217.27151079012782 269.61665295536363,217.6421894947527 C269.61665295536363,217.6421894947527 269.6166956799723,217.64240311779594 269.6166956799723,217.64240311779594 ZM122.53223163207153,217.93382767337988 C121.13223165591339,218.4337055945545 119.80851646849518,219.12575880542516 118.59906824690447,219.9901203629708 C117.4327505177433,220.8237202022903 116.40287382629762,221.83325998001982 115.54624542291717,222.98276557567823 C114.70529695091031,224.11120793927347 114.04891878826024,225.36602969524773 113.60163486033056,226.70040467252346 C113.15099705062207,228.04481993283133 112.91178196680525,229.45110042646064 112.89255589291392,230.86891656442475 C112.85903843743003,233.3403642762425 113.44624545867995,235.78070847296493 114.60036531207228,237.96641400214884 C115.73611358374623,240.11734169989376 117.4192281791064,241.93053136628095 119.47977196725773,243.22299350247357 C121.54478047701272,244.51823273822828 123.91409501185885,245.2476699816654 126.35001721158628,245.3381607027806 C128.83041572891565,245.43031768363306 131.29481388030658,244.9045486496181 133.52166320761793,243.80819246711707 C135.89027278642138,242.64202427408617 137.88119682478177,240.83032996900164 139.26502553656687,238.58190471432334 C140.64127063031705,236.34582687154415 141.34571397769545,233.76124439602808 141.2944658096229,231.13607354229697 C141.24276903315953,228.4891131381557 140.44110583880396,225.91111025237132 138.9825945111032,223.7016071161708 C137.50654473155268,221.4655292733916 135.44747494239968,219.67528272184808 133.0279162677842,218.52440993871295 C132.25167421557384,218.15518387078208 131.43693729097217,217.87303055527462 130.5985950200928,217.68316239444556 C129.6771320230899,217.47440995659434 128.73986092088748,217.34281816196034 127.79654428656144,217.28975419802026 C126.8591663728374,217.23698930634072 125.91901135955126,217.2628376945724 124.9859486313006,217.36695756584612 C124.14886673637633,217.46035356034935 123.32545671621924,217.6505635180476 122.53223163207153,217.93382767337988 C122.53223163207153,217.93382767337988 122.53223163207153,217.93382767337988 122.53223163207153,217.93382767337988 ZM144.67795574223678,189.0795496003122 C145.66149759560435,189.38332156779524 146.60096901515212,189.81479739052537 147.47227332160296,190.36299684408021 C148.3528702304346,190.9170068444111 149.1595108416976,191.58069091513988 149.87286226997898,192.33802732802377 C150.7427139397358,193.26156246854606 151.52233123602932,194.26614619167248 152.20105436900198,195.33802117341855 C153.13315579355807,196.81009756436487 154.0092452561774,198.31690906214152 154.82742151177519,199.8552085964913 C155.87669517554679,201.82797467617655 156.9527571689403,203.78638528735627 158.05530841969522,205.72988501011804 C158.733775205016,206.92583225537618 159.476072555656,208.0844381926765 160.27899612596667,209.20066131819857 C160.88380568597933,210.04152434098813 161.55806409734834,210.83013516740192 162.29472179964688,211.55820522336234 C163.019737046089,212.27482508420525 163.80642526511366,212.92624719225222 164.64566475277462,213.50490929177266 C165.6029096095197,214.1649617707664 166.65692570485118,214.6721883246284 167.76996584702903,215.00843099468347 C169.00383118246174,215.38120320513207 170.27608457876414,215.61230061330588 171.56222347287695,215.6973225845142 C173.8438671107786,215.8480977284309 176.12989002106661,215.92329303965033 178.4165110758757,215.92278034434656 C185.80532625766213,215.92115680921796 193.19414143944854,215.90688678992973 200.58291389662625,215.8800984603078 C200.58291389662625,215.8800984603078 230.75385759668532,215.77025349147533 230.75385759668532,215.77025349147533 C230.75385759668532,215.77025349147533 233.0697663707222,214.6846211857448 233.0697663707222,214.6846211857448 C234.15298473606416,214.1768392119704 235.17722177916838,213.55173546285022 236.12408455601215,212.8205037858499 C237.06319281638642,212.09529627866885 237.91774907624747,211.2666952185611 238.67162479583092,210.35042326150887 C239.64213564356103,209.17088226597133 240.52177124869812,207.91939302947156 241.30296935551158,206.60676487799736 C242.51489560440385,204.57038185603614 243.68262324565038,202.50802227201729 244.80534051168686,200.42113876263483 C245.61379691881737,198.91838610267968 246.46072683603487,197.4366966747877 247.34533985807937,195.97748039104425 C247.9548918496519,194.9719567265276 248.6394255294006,194.01385737760955 249.39310898824513,193.1113427445418 C249.99294113135036,192.39305662396163 250.66681502124155,191.74001098078605 251.40360089736603,191.16310059022015 C252.1278471008525,190.59593141042586 252.91282633553126,190.11100710227782 253.74414040828813,189.71717165976605 C253.74414040828813,189.71717165976605 256.46262180730514,188.42923833209005 256.46262180730514,188.42923833209005 C256.46262180730514,188.42923833209005 271.7654444226762,188.29918462336735 271.7654444226762,188.29918462336735 C274.09929753234496,188.27927495573766 276.43323609123104,188.2687647020104 278.7671746501171,188.26765386218557 C280.4859215690892,188.26684209462127 282.204647125757,188.28294927208134 283.92309497246856,188.31597539456578 C285.1796897997017,188.34020024766886 286.4359855546743,188.37784062788722 287.69178997664744,188.42893925982952 C288.3045249515642,188.45384770667096 288.9145469138318,188.52468510780835 289.51670754810834,188.64076786950335 C290.88304053265233,188.9042505310319 292.20955418193694,189.34328860949262 293.46326509808637,189.94690188046314 C294.72163299657836,190.55277955569198 295.89741422655493,191.31703735517675 296.9619833002223,192.22104734954718 C298.1477193640137,193.22802365075785 299.21792808602254,194.36355829938856 300.1529988708796,195.60675896181073 C301.2655904046667,197.08597036240116 302.27923174482635,198.63708727934517 303.18725785240963,200.24998398039332 C303.7824543754766,201.307247145982 304.37850539071655,202.3639976162669 304.9754536227381,203.42027811585666 C305.41034741416,204.1898337668137 305.84686474071054,204.9584494763805 306.2849201531724,205.72616796916572 C306.74237253796014,206.5277670766083 307.20132028405055,207.32851169187796 307.6618061160523,208.12835909036602 C308.34539985441074,209.31567596467738 309.02967718650757,210.50256559290227 309.7146808369514,211.6890279750407 C311.04247622449543,213.98876548470452 312.3687762507368,216.2893574865413 313.6935809156755,218.59076125594237 C315.0461138516264,220.94040110850636 316.39727960010055,223.290810004026 317.7469927118807,225.6420733917186 C318.9562700350368,227.74865294568752 320.16426561993353,229.8560015426121 321.3709794665708,231.96403373327502 C322.2122270108382,233.43376027074572 323.0509538031954,234.9049821695191 323.88711711903375,236.37761398037782 C324.3078690649934,237.11867231736704 324.7296891261692,237.85917523444385 325.1524918533439,238.5990800069996 C325.62135170864053,239.4195206668557 326.0910660561101,240.23949135601669 326.56159217114396,241.05899207448255 C327.00691076707585,241.83457189525888 327.4530838551807,242.60968174534008 327.89998326163254,243.38432162472617 C328.24024204490047,243.97409212249494 328.5817825664278,244.5630508526994 328.92473300004053,245.15119781533957 C330.2052322458119,247.3473708736421 331.480305466285,249.54674827759317 332.74986721224263,251.74928730258415 C333.4634536258716,252.9872328381427 334.1617019049961,254.2339369184739 334.844398426573,255.48914319592598 C335.3191970024716,256.3620496752011 335.7749831275221,257.24516733594294 336.211457729464,258.13781258441315 C336.6007216388505,258.93398566655753 336.96563252130795,259.74182256686265 337.305634956924,260.5602551701123 C338.3972914324738,263.187904051145 339.1526197887513,265.9429577151642 339.55367569012446,268.75996206172215 C339.9717359857393,271.696937109362 340.06145766389886,274.671338914177 339.8211317402572,277.6281809048379 C339.5749098206222,280.65786835324263 339.00056290657517,283.6518807534268 338.10825945497413,286.5576241121454 C337.21339252685425,289.471485146507 336.0076186216072,292.2805854404652 334.511659174427,294.9363898385965 C333.23081813178646,297.21027896002863 331.7604934497947,299.37210143297864 330.116279610608,301.3987859687769 C328.43408359433374,303.4723394002614 326.59124304954526,305.41015675007304 324.60480509509284,307.1943791317973 C322.6685258311925,308.9335697760072 320.5952287473599,310.5138248760487 318.40499440965937,311.9198062974175 C316.3725420516937,313.2244876716833 314.2135394029144,314.3206729557497 311.9608416873714,315.1916568276357 C310.04289128058076,315.9332278599287 308.069826128635,316.52342560378395 306.0597187409919,316.95686675851186 C303.99787185227683,317.40145903609675 301.90654498359504,317.69591703889466 299.8021016600585,317.83789091343 C297.73811854091105,317.9771731376205 295.6666586152503,317.96384305972254 293.6046408281006,317.7979861289533 C291.6723349528045,317.6425112780854 289.7579306885316,317.3138308637609 287.88441387473426,316.81587554997543 C286.24558333623713,316.38029816481514 284.6416160783963,315.82278474657517 283.085927628327,315.14799227759806 C281.3918968954574,314.41317173347136 279.741829784886,313.5808963570199 278.1440362329947,312.65531043528256 C276.6502557408555,311.78996621173803 275.20911196656994,310.83678019281444 273.82816716586854,309.80083660694083 C272.77917121205314,309.0138920402643 271.839806604027,308.0905277981766 271.0349817886315,307.0551396322154 C270.59066722100283,306.4835698177304 270.17348277986525,305.8914067418774 269.78475292808685,305.28065846126276 C269.078301524102,304.17063040399455 268.3817835916277,303.0542791046465 267.6953486667942,301.9317754616533 C266.79330400442154,300.45670834810164 265.90330768168747,298.97429260186266 265.0254237855049,297.4846991213709 C263.9121486579795,295.59563055002593 262.8065425977063,293.7020331701643 261.708584242381,291.80403515561204 C261.216930808371,290.95411451578923 260.72478604136154,290.1045356728356 260.232107216744,289.25521317753385 C259.61153227614045,288.1853462523942 258.9906155386677,287.11573567490643 258.36937836663014,286.0462532712446 C257.727911092398,284.94195031153515 257.08612338360103,283.83786097486893 256.4439938779349,282.7339425366373 C255.8823148103518,281.7683236565973 255.32020849668223,280.80300384881787 254.75767493692618,279.83789766408165 C254.2234037057904,278.92128391016024 253.69035012600105,278.0039438378918 253.1585355598625,277.08592017188505 C252.6048032694878,276.1300425026167 252.05218181893795,275.1735239642186 251.50071393282158,274.21632183208214 C251.0041258065128,273.3543955772294 250.50854170850724,272.49182845324697 250.0139830011092,271.6287059093521 C249.67865891014006,271.04346422009996 249.34547104960328,270.45698351719705 249.01439805719454,269.86934924986065 C248.37028185722627,268.7259532732388 247.6697478115391,267.6152843468409 246.9153593966519,266.54144403309704 C246.26902151703396,265.6213695858752 245.55114128023595,264.75367550885505 244.7684264498155,263.946436753071 C244.05746759961838,263.21319701946425 243.28284908253661,262.5444714449151 242.4536498779078,261.9482068066319 C241.63624266526566,261.3604016408609 240.76611328555262,260.84958621987255 239.85443422392999,260.4223401333985 C239.85443422392999,260.4223401333985 236.87501227759893,259.0260571981927 236.87501227759893,259.0260571981927 C236.87501227759893,259.0260571981927 199.93559335100943,259.0260571981927 199.93559335100943,259.0260571981927 C199.93559335100943,259.0260571981927 162.9962171490286,259.0260571981927 162.9962171490286,259.0260571981927 C162.9962171490286,259.0260571981927 160.3091169750631,260.3488965311336 160.3091169750631,260.3488965311336 C159.51072221326905,260.74196293068974 158.74560992161133,261.1992444170429 158.02134235582054,261.7162976308938 C157.23382100692726,262.27855348069363 156.48265829999292,262.8900280796553 155.77229759431685,263.5470898360437 C155.0716780994124,264.1950939753989 154.41316370632995,264.8871899108782 153.80074916597806,265.6191479062255 C153.25509182663777,266.27133905722815 152.76939847553408,266.97146721913316 152.34958647096468,267.7110301948197 C151.64663848488894,268.9493602518561 150.93600006925666,270.1833323988104 150.21769258637218,271.4128184618568 C148.63489537211612,274.12207134540597 147.0500687389493,276.8300852153044 145.46321268687174,279.53694552076934 C143.5568620113289,282.7888436587492 141.64764878700666,286.0390328123832 139.73557301390505,289.28755570627993 C137.65422234134243,292.8236152163737 135.57045772839123,296.3582648143821 133.48430053735578,299.89150450030513 C132.4813830739666,301.5901067663 131.43755679779755,303.26422783153987 130.35376165023885,304.91237233472214 C129.62065009045804,306.02727099737615 128.80546455746557,307.0859440750502 127.91495553942772,308.07959029836286 C127.13862803800006,308.945831738689 126.28293957600985,309.7375187369254 125.3590840009227,310.44426921317074 C124.2778096052742,311.27146036119314 123.14908953172275,312.0346500454617 121.97867024013144,312.7299930511982 C120.39354453470409,313.67168615039566 118.74460962626185,314.5016116733715 117.04389249213895,315.2136600010891 C115.4056814604672,315.8995181437059 113.71637179685317,316.4563479682075 111.99140844732287,316.8790225215563 C110.24724038620556,317.3063967818563 108.47271649064427,317.5985903803959 106.68361282238206,317.75303984065624 C104.78900073306508,317.91663236716715 102.88576895395349,317.95700712233895 100.9859231000772,317.87399320773704 C99.54817593217908,317.8111453084167 98.11368651569032,317.6883547831641 96.68618257271541,317.505877979631 C95.43093357065467,317.34540434955136 94.18670751762497,317.1081545977323 92.96048988714014,316.79545318704197 C91.74075571601756,316.48441803608887 90.54139050206763,316.0983584723509 89.36923018267393,315.63953890008645 C88.04834550057862,315.12248568623556 86.75041461447913,314.54860874288363 85.47905843495832,313.9195743297679 C84.36618919121506,313.36893957352015 83.27322961510149,312.7789981773168 82.20224116898484,312.150818256374 C81.22394376132874,311.5769840376307 80.27289397283752,310.95790445832984 79.35218933763812,310.2955875750778 C78.40903292059451,309.617120789757 77.49696933749405,308.8964420910926 76.61878636905098,308.13573043412555 C75.61586890566181,307.26696824188923 74.63955819230782,306.36795702673055 73.69120005416138,305.43997852690893 C71.60440199399622,303.3979985812149 69.69428087174023,301.1829412458902 67.98130177493553,298.8186041279515 C66.36225273024215,296.5839361972577 64.97158808107346,294.1923835036106 63.83022152336238,291.67992016749133 C62.70212095663635,289.1966804636869 61.82971649151284,286.605048427744 61.2264984231723,283.94514246718256 C60.60110628294376,281.18748260203586 60.22876131858163,278.37846775729497 60.114088468972,275.5531321120508 C60.05700839181907,274.1465098215523 60.045451385179945,272.73839216975114 60.079438811358955,271.331000836297 C60.10660098130654,270.20661731052326 60.204418972804774,269.0850108843116 60.37229464133259,267.97288932121967 C60.53116609858796,266.92045403640816 60.7615265072626,265.8800670912352 61.0617843756844,264.85894894456226 C61.40408325901524,263.69483153274643 61.79977722200317,262.54707764604257 62.247627250997425,261.41936160079433 C62.62619932706991,260.46609013265345 63.06277005938125,259.53695806839835 63.554893464086376,258.6370496364581 C64.7916320294506,256.3755933761423 66.04071800671394,254.12093032860156 67.30209799011558,251.87310321844433 C69.10326067916853,248.66337426919944 70.92160934204989,245.46330108150886 72.75709057299886,242.27309727841583 C75.4947232778421,237.51485761335442 78.24045229602402,232.76123220602693 80.99424558408813,228.0123492302593 C81.48427548296954,227.16725647121365 81.97267116557018,226.3212664953864 82.45942195073789,225.47429385356025 C82.95010339990117,224.62048527435053 83.43916131393584,223.7657794783592 83.92660637399408,222.910091016369 C84.35468559033674,222.15865059947845 84.78135489459405,221.40644113963225 85.20661428676598,220.6533771876131 C85.47187001955339,220.18366284014354 85.73378255171414,219.71211133450214 85.99234120209607,219.23867994608025 C86.19146992184946,218.8740681358833 86.3927669154917,218.51060989011984 86.59621082071848,218.1483479333985 C86.79957995788013,217.78625687511175 87.00510668777846,217.42536210586712 87.21275896695701,217.06566362566463 C87.3939967568393,216.75176592593215 87.57703966143694,216.43893634141585 87.76190904305426,216.12717487211575 C87.87444566223152,215.93739216050398 87.99143632186028,215.750301099237 88.11278489157107,215.56607258674939 C88.26989395871973,215.32749837206228 88.42003891465887,215.0844380734672 88.5630488609539,214.83714803861602 C89.08959761907667,213.92668662833984 89.61511030543974,213.0156270735426 90.13959760119528,212.10401209883292 C90.76048229521152,211.0247884843995 91.3791987153389,209.9443258563153 91.99573618042527,208.86266693918895 C92.68859047770806,207.647066373953 93.3797251094928,206.43052586732682 94.06912939462731,205.21300269470174 C95.3161325472191,203.010677292754 96.59431398297133,200.82616805261222 97.90328918040618,198.66007311879747 C98.71742796048679,197.31283803431887 99.60445492291987,196.01101920883247 100.56041804140554,194.76038446450565 C101.25169152816838,193.85603267326604 102.02090538225625,193.014016086043 102.85922629083129,192.24403318899948 C103.60956654904916,191.55479980229956 104.44142536056629,190.96003052531904 105.33626024522968,190.47288453752134 C106.26084213866383,189.96958864765492 107.23267744926201,189.5584070140323 108.23773114308355,189.24536380647277 C109.23868327447494,188.933559612564 110.26821816905144,188.7222009735853 111.3110617792216,188.61444951057655 C112.88826206974485,188.4514551285867 114.47199922539116,188.35981084303802 116.05746672768768,188.3396875523651 C119.62270714548762,188.29452764102479 123.1881611863308,188.2678674852288 126.75370067639128,188.25970708497715 C129.8705463264367,188.25257207533303 132.98741333878647,188.25248662611574 136.1042589888319,188.25953618654256 C137.43519463511151,188.26256963375653 138.7659166583479,188.29448491641614 140.0954851171508,188.35532475913004 C140.91919420956842,188.3929651393484 141.7404252746845,188.47315922977958 142.55586715532885,188.5954797843371 C143.27438826125658,188.7032739719545 143.98374493862943,188.86507206490222 144.67793437993245,189.0794641510949 C144.67793437993245,189.0794641510949 144.67795574223678,189.0795496003122 144.67795574223678,189.0795496003122 ZM202.96419132189365,154.45682985301954 C203.20733706970603,154.7037353663929 203.42941958545524,154.9705291850916 203.6281317402743,155.25441284724928 C203.9780890097052,155.75435485533689 204.319394545885,156.26029967093945 204.65194153729206,156.7720123087094 C205.03956054924564,157.36853329464446 205.4164343221244,157.9719756671804 205.78234923288508,158.582061716361 C206.1573003983747,159.20720819008983 206.5217840347457,159.83859245668117 206.87560788125919,160.4759154438745 C207.70653743253823,161.97264393401036 208.54428155889653,163.4655699339766 209.38877617342112,164.9546720814689 C210.49921011447148,166.9126981711708 211.61361744412605,168.86845985661438 212.73201952468915,170.821914413191 C213.96080063169282,172.96818512859335 215.19376875034393,175.11206326591144 216.43094524294682,177.25350610053664 C217.6472934888341,179.35893209007207 218.86795692019476,181.46188005230596 220.09295689933313,183.562264538021 C220.81604953838612,184.80208995636002 221.51013216816753,186.05862069668018 222.17467073106926,187.3307886437653 C222.55175812699125,188.05266363147183 222.8457247967897,188.8150415481761 223.05095245442752,189.60318240389478 C223.20033904856317,190.17697389802942 223.23449737317677,190.7746911730066 223.1514407339662,191.36172729582194 C223.06387664854336,191.98055052747094 222.87253448871596,192.58019040983726 222.58544648090972,193.13531124999298 C222.26864350778922,193.7479394133881 221.77216219300206,194.24909907282216 221.16252475221225,194.57158441889277 C220.45135227897188,194.9478173226418 219.67515295137017,195.18549432054732 218.87524146596914,195.27192620384102 C217.36381571045857,195.43526238270005 215.84501995995632,195.52130974451592 214.32479293506438,195.5297692170281 C209.57206474451849,195.55621574978085 204.81927246705962,195.56928948002695 200.06648018960075,195.56894768315777 C195.97613296921995,195.5686913355059 191.88578574883908,195.56262444107796 187.79543852845822,195.55074699987398 C186.24427888690556,195.54621819135735 184.69329014378746,195.51421745948045 183.14324134205964,195.4547875288519 C182.29648232327673,195.42231682627988 181.45156046266567,195.3526757141846 180.61088970061502,195.246120540218 C180.1302164910274,195.1851952482868 179.6678721385495,195.02331170612177 179.2541697530167,194.77110834127615 C179.06041365280072,194.65293207375743 178.8766123863996,194.5191613240824 178.70460311198514,194.37112055511915 C178.50478011734123,194.1991112807047 178.31405746433921,194.01680537560622 178.13320419593475,193.82497188277938 C177.95376083961565,193.6346337512552 177.78437912863302,193.43502437965452 177.62578538133386,193.22695553554166 C177.49210008087613,193.05161374165272 177.37396653796606,192.86490720186356 177.27266649086306,192.66905759582386 C176.95584215543823,192.05638670782008 176.81820482868062,191.36676879964233 176.87554125348544,190.67937257111424 C176.943024772844,189.8705102802016 177.14846605352506,189.07912235422572 177.4829783769299,188.33955937853915 C178.10192978240485,186.97104743895414 178.78832198262972,185.63402353594228 179.53961286339,184.33344372410664 C181.78004861625124,180.45498920031258 184.03221227418618,176.58332788929346 186.2961251994992,172.71850251565792 C186.54884125964858,172.28702669292778 186.79980561084344,171.85456820419876 187.0489755284751,171.42104160025355 C187.5173654130766,170.60628331334755 187.98515715315702,169.79114050496372 188.45235074871638,168.97565589971072 C189.00022976770637,168.01935098435587 189.54738246834935,167.06261882291454 190.09376612603668,166.10545941538675 C190.6599740021364,165.11360762563726 191.22549828449777,164.12134995210562 191.79031761081646,163.12870775709615 C193.037107140365,160.9374693910924 194.2946632712927,158.75236200642956 195.5629432789909,156.57349241462924 C196.00413895018832,155.81557921952862 196.50096206184466,155.0914825521724 197.04935377613842,154.4071411331626 C197.3729926866425,154.00324404531437 197.78690869521856,153.68099368459133 198.2578193317302,153.46625980152947 C198.74250865453067,153.24522403869213 199.26900400689263,153.13085026134303 199.8017157898128,153.1308288990387 C200.1458411501633,153.13085026134303 200.48968880055762,153.15024723366895 200.83163520586712,153.18891300449485 C201.0807410365858,153.2170685215935 201.32454901583222,153.28057865234786 201.55573187322332,153.3774994270645 C201.787149715962,153.4745697379114 202.00359258336974,153.60404666441735 202.19852361032352,153.7620849918041 C202.46651371806436,153.9792969021675 202.72213505160178,154.21133425173156 202.96419132189365,154.45710756297575 C202.96419132189365,154.45710756297575 202.96419132189365,154.45682985301954 202.96419132189365,154.45682985301954 ZM219.80166051757513,74.12638383334365 C221.13080173029155,74.4802717667701 222.42646821213273,74.94966567967481 223.67385588620235,75.52924635828111 C225.094150051468,76.1891493011446 226.4740908238662,76.9326215785224 227.80641501992685,77.75579661333194 C229.142798053809,78.581513762356 230.42915057096505,79.48554511903075 231.65874344553302,80.46319097640497 C232.74670424243484,81.32819340308032 233.75887158359618,82.28447695613085 234.68417979537733,83.3216381933509 C235.0278992719457,83.70690735182887 235.3530762683611,84.10832641237556 235.658621307103,84.52452818751425 C236.10387581612193,85.13100400726415 236.5393463897606,85.74457211204953 236.96490485419307,86.36504024113145 C237.43641363522582,87.05250055657251 237.8969421918362,87.74743767852686 238.3463196255896,88.4495738970383 C238.7769623184511,89.12242239632195 239.19538577323945,89.8030254120751 239.60141909152006,90.49104114742858 C239.99687806916043,91.16115527175879 240.39284974210457,91.83094896152414 240.78933411035248,92.50046494133329 C241.18199462612645,93.16357222984533 241.57518919950851,93.82638044609683 241.96889646819434,94.48888959008781 C242.31024472898278,95.06327922874351 242.65204159816201,95.63741251974733 242.9942443511234,96.21131082540359 C243.19598995315644,96.54962563897806 243.39884639501432,96.88727822111849 243.60281367669702,97.2242685718249 C243.8491210455493,97.63122046919142 244.09211725723142,98.04018042316437 244.3317382248304,98.45108434683078 C245.02088616231302,99.63282565971366 245.70939323066594,100.81495149407436 246.39725942988915,101.99744048760857 C247.21723011905013,103.40701077610373 248.03608996838628,104.8172219337286 248.8538389778976,106.22809532278751 C249.75515732192324,107.78312154142276 250.65553572455863,109.3386818176661 251.55503827271676,110.89477615151753 C252.4889768554447,112.5104713144321 253.4241544518234,114.12544015899965 254.36057106185288,115.7396826852202 C255.28365759398437,117.33096073429277 256.2079831397666,118.92151246501834 257.1335904238083,120.51131651509257 C257.93352327151365,121.88523311767148 258.73450287213086,123.25853021342499 259.53652922565993,124.63122916465744 C260.00150114156963,125.42703908762832 260.46927151934574,126.22122547547059 260.9398189966839,127.01374560357561 C261.39462245573554,127.7797337497106 261.84579432305213,128.54785812627796 262.29337732324234,129.31807600866904 C263.01315880512516,130.55674786257458 263.7314449257053,131.79627420865307 264.4481929603742,133.03669777151316 C265.2649806661909,134.45024144861253 266.08001666305313,135.86481051631944 266.8933009509608,137.28036225002523 C267.70090286591835,138.68602323682916 268.5066889850084,140.0926882519363 269.3107020328396,141.5004000199553 C270.1290919114806,142.9332765824676 270.9496393828583,144.36491413132916 271.77234444697274,145.79531266653993 C272.62974189330885,147.28597426224786 273.48912603394706,148.77548229352232 274.3504968688874,150.2638367603633 C275.1267175587934,151.6050476750226 275.90473268226265,152.94523319907438 276.68454223929507,154.28435060790997 C277.21437011113153,155.19417114905644 277.747893661616,156.10183409746622 278.2851342530528,157.00727536622634 C279.4091332573487,158.90168451365224 280.52732171486855,160.79953299207426 281.6396569010037,162.70079943918807 C282.1472252517349,163.5683867046866 282.6328331536213,164.4485990920404 283.09605336057643,165.34064619598956 C283.3603691519736,165.84966718341474 283.6036003490033,166.36936932300176 283.8250847202314,166.89842815188257 C283.90587695518366,167.0914152091429 283.8620201444071,167.31405314480452 283.71408618696546,167.46200846455048 C283.60206226309197,167.57398966381533 283.4507530615672,167.63790567835184 283.2923302127026,167.64008463339286 C281.25312736657065,167.66811197666556 279.21388179583005,167.6938321910713 277.1745935004808,167.71720255200142 C274.69581851828,167.7456571413606 272.21687263764466,167.75988443604018 269.7379267570093,167.75992716064883 C266.4569117982362,167.76001260986612 263.17591820176744,167.75185220961447 259.894945967603,167.73540323528522 C259.894945967603,167.73540323528522 236.46692817810325,167.61748331541838 236.46692817810325,167.61748331541838 C236.46692817810325,167.61748331541838 234.42655040523348,166.53168011125325 234.42655040523348,166.53168011125325 C234.12749950700598,166.37257366865032 233.83539135768368,166.2006925680618 233.55101636252655,166.0166349540088 C233.2297486678024,165.80869428372188 232.91471876594076,165.5912260257066 232.60635390302812,165.3645719768321 C232.30928969910272,165.14620650203523 232.01880508490902,164.91899703324833 231.73534866883782,164.6831999181233 C231.51036087970058,164.49604476994335 231.29665238724627,164.29570907999567 231.09537675590835,164.08323960119213 C230.8009828400234,163.7724394355866 230.53856829371105,163.4328428837527 230.31210650557549,163.06955553642382 C229.56538715794048,161.8716429591679 228.82458516860314,160.67001334095966 228.0897432621721,159.4647734933207 C227.21529869698568,158.03052974333167 226.35226160230812,156.58934324443743 225.50076015196535,155.14136353276825 C224.54990262421305,153.5244079938986 223.6082949742329,151.9020050674264 222.67602265124222,150.27426156487326 C219.0150791100721,143.88236103896105 215.3397373757878,137.4987063625178 211.6499974483893,131.12338298476078 C210.46436819611952,129.07480208703072 209.19638726068186,127.07499133007167 207.84913081389894,125.12886404387808 C207.11525021116248,124.06873832951004 206.23612730132916,123.11691949806317 205.23752502341338,122.3012853566799 C204.39273133662826,121.61128292702432 203.3985724180118,121.12793942939624 202.33413151817038,120.88972837388263 C201.5533606574434,120.71498472451475 200.75652534386498,120.62190916457638 199.956485684638,120.61197569306586 C199.1943427532813,120.60251219225046 198.43382335705317,120.684842513114 197.69135510797864,120.85717222209331 C196.97652968069892,121.02311460207983 196.2854164112185,121.2783300518351 195.6343147377364,121.61681576384416 C194.99374468028586,121.94983272594635 194.40004351852153,122.36605586338936 193.86859211155647,122.85469721248973 C193.3480354797965,123.33336236547092 192.8881264300115,123.87406365020814 192.4992043174942,124.46471000245418 C191.6838265237628,125.70293324796893 190.88899926679082,126.95457202059896 190.11502161883877,128.21909226273618 C188.99670498749296,130.0461887892381 187.90398039672695,131.88883707328768 186.8371896434099,133.7465030572768 C185.23969516377912,136.52828096400498 183.65439855991718,139.31706570655132 182.08134255643273,142.11275047339421 C181.8911325987345,142.4508089393168 181.69957681586385,142.78811972458806 181.50671793242947,143.12468282920798 C181.17731119975798,143.6994569893415 180.84743449639137,144.2739320772145 180.51702373541667,144.84815081743562 C180.13542889328238,145.5113008305563 179.75325726893135,146.1741090468078 179.3704447754506,146.83655410388582 C178.98321028497486,147.50671095282468 178.59535628767372,148.17652600489436 178.20692550815585,148.84597789779053 C177.78010666776828,149.5816529340902 177.3536296242499,150.31749886882443 176.927515739905,151.05357978890623 C176.42633471816663,151.91924444701561 175.92543140638446,152.78508000355959 175.42478444225418,153.65106509623382 C174.9299907495086,154.50688173204998 174.4354747667192,155.36282654169207 173.9411937692774,156.21894224976876 C173.53556633477893,156.92148435206235 173.1303234217583,157.62424007739918 172.72544366791118,158.32720942577924 C172.016065628234,159.5588744438666 171.25535397126697,160.7602690767273 170.44533811592083,161.92821034101706 C169.82034117832228,162.82940051121676 169.1154705848574,163.6725065759603 168.3392712572557,164.44729599147666 C167.69425784050583,165.09113448148872 166.97733890740238,165.65868818276084 166.20265630340765,166.13869916091443 C165.469950627409,166.5927335770104 164.678819049085,166.94491252609095 163.85109384345452,167.18558024660177 C163.1989026924519,167.3751493351703 162.5278059021228,167.49234293669014 161.8499586236274,167.53498209612025 C160.5576887481737,167.61637247559355 159.2639875983303,167.67366617578972 157.96956013013988,167.70677774749146 C155.83997337441434,167.7612516235169 153.7098525610807,167.79222696478627 151.57956084931251,167.79961832208227 C147.38646094513464,167.81410196441374 143.19333967865245,167.8213651478838 139.00021841217026,167.82132242327515 C136.0991106734899,167.82123697405785 133.19800293480952,167.8138028921532 130.29691655843348,167.79889200373526 C127.84390451524709,167.78637369340157 125.39093519666935,167.7635160277752 122.93811541422187,167.73031900685618 C120.74852194565105,167.70066812845488 118.55892847708023,167.67012003327198 116.36935637081373,167.6386747213075 C116.27807524443855,167.63735025843943 116.1937582292729,167.58958414597163 116.14575713145754,167.51191080745065 C116.06272185455131,167.37754191325456 116.05746672768768,167.20916423057514 116.13197844516876,167.06992473099325 C116.83449918515802,165.75665571038934 117.54077969070826,164.44539474639186 118.25077723721083,163.1361418390008 C119.05436303895553,161.65428151267423 119.8749532349419,160.18169242642415 120.71241965134399,158.71871637711973 C121.66620381478864,157.0524780021753 122.63299762156643,155.39371643374415 123.61265153554709,153.74255984565224 C123.90839127660442,153.2441131988673 124.20376785848825,152.74549565364777 124.49878128119857,152.24664312308067 C124.78601882513507,151.76101385888995 125.07289320989807,151.275170971656 125.35940443548756,150.7891144613788 C125.60500684829717,150.37242135324067 125.85033155115056,149.95553598436362 126.0953358194391,149.5385010793563 C126.23075146654705,149.3080231780079 126.36531262148205,149.07707530596434 126.49904064654842,148.84563610092135 C126.64283031695126,148.5967438932459 126.78672679887572,148.34795849709207 126.93077281693044,148.09921582554688 C127.24287608309973,147.5603516989815 127.55500071157334,147.0214875724161 127.8671680646556,146.48264480815504 C128.23782540697616,145.84282243135584 128.60852547390536,145.20302141686096 128.9792682654432,144.5632417646704 C129.37389411321496,143.88229695204808 129.76856268559536,143.2013948640344 130.1632739825844,142.52049277602072 C130.6223071778921,141.7286135170454 131.0802508956793,140.93607202663605 131.53706241133736,140.142889667097 C132.10568422782566,139.15560941047278 132.67357972596696,138.1679019077621 133.24074890576125,137.17978852126924 C133.82227355406107,136.16668123871767 134.40305052170956,135.15314671007962 134.98307980870672,134.1391849353551 C135.48554256870452,133.26083106847744 135.98702266270342,132.38192178168737 136.48752009070344,131.50243571268055 C136.99649835351997,130.60806011756011 137.5076555713775,129.71492353609045 138.02099174427607,128.8230473305759 C138.63116324267398,127.7628788915992 139.2428728269832,126.70362903170843 139.85614185950803,125.64525502629493 C140.4666337924708,124.59166617704994 141.07866381134485,123.53899590689088 141.69223191613023,122.48720149120908 C142.20146652659864,121.61427364962964 142.7129228167167,120.74262754630962 143.22657942418013,119.87228454355335 C143.78928388237077,118.91882081467355 144.35066387769334,117.9645880428381 144.91071941014783,117.00956486574268 C145.70197916229776,115.660279000049 146.492533958405,114.31058725057318 147.2824051607739,112.9604896173152 C148.14542089314713,111.4853584168506 149.00768894486905,110.00982133260385 149.86920931593963,108.53381427766197 C150.67993012732845,107.14483725053486 151.48979644654432,105.7553688904083 152.29882963589156,104.36538783497798 C153.0815231040077,103.02067350240958 153.8644088328627,101.6760659813628 154.64746546015232,100.33156527183763 C155.42830040779228,98.99086705248209 156.2092848915625,97.65027564464816 156.99048299837597,96.30979104833585 C157.67102192721615,95.1419565955677 158.3517317544909,93.97422895432118 159.03261248020027,92.80656539998762 C159.4431746069975,92.1024638494784 159.85412125527256,91.39855455970809 160.26543106272112,90.69488025528534 C161.26347792072448,88.98749808221345 162.34419689646057,87.32980462899849 163.5037214128468,85.72767452932948 C164.49642769476924,84.35600096870456 165.59400152861673,83.06334657177302 166.78650944287875,81.86131106978263 C167.90521059570239,80.73368047375169 169.11688049694277,79.7022656963947 170.40868040170136,78.77800423752541 C171.76052974391388,77.81076182235682 173.1815929521352,76.94413586055288 174.6604198312478,76.18506910101877 C175.8159709590298,75.59194472147118 177.01599840441378,75.08980239603824 178.24958602989028,74.6831495709323 C179.3570933352483,74.31806779004023 180.5007242972177,74.07338395631655 181.6606760596904,73.95332780601734 C183.37557776388422,73.77587114400035 185.09784946306974,73.67852312319724 186.82183014660117,73.66164690278151 C191.12780846682548,73.61947771404652 195.43393632318006,73.59548784629101 199.74012826644756,73.58967729951496 C202.79265201817432,73.58561846169346 205.8451757699011,73.58982683564523 208.8976567970192,73.60228105906594 C210.73353323059817,73.60975786557924 212.56926012804686,73.63804155650382 214.4044743301918,73.68713213183969 C215.60802655578917,73.71932512445551 216.8110019991698,73.77016740874592 218.0129520519429,73.83965898471092 C218.6173557281734,73.87458635228018 219.21663245136622,73.97067399712819 219.80166051757513,74.12644792025662 C219.80166051757513,74.12644792025662 219.80166051757513,74.12638383334365 219.80166051757513,74.12638383334365 Z" transform="matrix(1,0,0,1,0,0)" fill="#ffffff" stroke="#000000" stroke-width="0.15399999916553497"/>
	</g>
</g></g></svg>