<?xml version="1.0" encoding="UTF-8"?>
<svg width="20.5" height="20.5" viewBox="0 0 20.5 20.5" version="1.1" xmlns="http://www.w3.org/2000/svg">
  <defs>
    <linearGradient id="file-body" x1="21.057846" y1="23.008402" x2="-41.097679" y2="-46.29372" gradientUnits="userSpaceOnUse">
      <stop stop-color="#008f7b" offset="0"/>
      <stop stop-color="#006f84" offset="1"/>
    </linearGradient>
    <linearGradient id="file-corner" x1="-9.108303" y1="22.616745" x2="32.585659" y2="-12.171739" gradientUnits="userSpaceOnUse">
      <stop stop-color="#10b981" offset="0"/>
      <stop stop-color="#008f7b" offset="1"/>
    </linearGradient>
  </defs>
  <path opacity="0.2" d="m 3.25,0.5 c -0.554,0 -1,0.446 -1,1 v 18 c 0,0.554 0.446,1 1,1 h 14 c 0.554,0 1,-0.446 1,-1 V 6.5 L 12.75,6 12.25,0.5 Z"/>
  <path fill="url(#file-body)" d="m 3.25,0 c -0.554,0 -1,0.446 -1,1 v 18 c 0,0.554 0.446,1 1,1 h 14 c 0.554,0 1,-0.446 1,-1 V 6 L 12.75,5.5 12.25,0 Z"/>
  <path fill="#ffffff" opacity="0.2" d="m 3.25,0 c -0.554,0 -1,0.446 -1,1 v 0.5 c 0,-0.554 0.446,-1 1,-1 h 9 l 5.5,5.5 h 0.5 l -6,-6 z"/>
  <path opacity="0.2" d="m 12.25,0.5 v 5 c 0,0.5523 0.44772,1 1,1 h 5 z"/>
  <path fill="url(#file-corner)" d="m 12.25,0 v 5 c 0,0.5523 0.44772,1 1,1 h 5 z"/>
  <g fill="#ffffff" fill-rule="nonzero" transform="translate(5.1 7) scale(0.0206)">
    <path d="M250,0 C388.071187,0 500,111.928813 500,250 C500,388.071187 388.071187,500 250,500 C111.928813,500 0,388.071187 0,250 C0,111.928813 111.928813,0 250,0 Z M342.476402,249.999935 L157.644689,249.999935 C148.713038,249.999935 140.459853,254.76492 135.994038,262.499963 L85.694992,349.620724 C76.2716335,365.942459 81.8638733,386.81298 98.1856089,396.236339 C114.507345,405.659698 135.377867,400.067459 144.801226,383.745724 L174.387911,332.499935 L325.733161,332.499935 L355.319991,383.745724 C364.74335,400.067459 385.613874,405.659698 401.935609,396.236339 C418.257346,386.81298 423.849585,365.942459 414.426226,349.620724 L364.127039,262.499935 C359.66122,254.764909 351.408043,249.999935 342.476402,249.999935 Z M249.705715,99.4994879 C238.025528,99.5692215 226.690191,105.659875 220.428246,116.505883 L145.354419,246.540081 C149.174171,244.890029 153.346061,243.999935 157.644689,243.999935 L225.338419,243.999152 L250.060661,201.180935 L274.781419,243.999152 L342.476402,243.999935 C346.77684,243.999935 350.950435,244.890779 354.771498,246.542166 L279.692972,116.505883 C276.576735,111.108401 272.204065,106.888569 267.115291,104.002544 C261.874722,101.03043 255.874804,99.4728404 249.705715,99.4994879 Z"/>
    <path d="M330.187339,283.687339 L317.042972,283.687339 C313.433702,283.687339 310.5,286.623946 310.5,290.25 C310.5,293.898648 313.430152,296.812661 317.042972,296.812661 L330.187339,296.812661 L330.187339,309.957028 C330.187339,313.566622 333.123946,316.5 336.75,316.5 C340.398648,316.5 343.312661,313.570172 343.312661,309.957028 L343.312661,296.812661 L356.457028,296.812661 C360.066622,296.812661 363,293.876054 363,290.25 C363,286.601352 360.069848,283.687339 356.457028,283.687339 L343.312661,283.687339 L343.312661,270.542972 C343.312661,266.933378 340.376054,264 336.75,264 C333.101352,264 330.187339,266.930152 330.187339,270.542972 L330.187339,283.687339 Z"/>
    <path d="M164.25,316.5 C149.752382,316.5 138,304.747296 138,290.25 C138,275.752704 149.752705,264 164.25,264 C178.747618,264 190.5,275.752704 190.5,290.25 C190.5,304.747617 178.747295,316.5 164.25,316.5 Z"/>
  </g>
</svg>
