<?xml version='1.0' encoding='utf-8'?>
<svg xmlns="http://www.w3.org/2000/svg" width="600px" height="600px" viewBox="-50 -50 600 600" version="1.1">
    <title>bazzite-logo-le</title>
    <defs>
        <linearGradient x1="73.6318768%" y1="26.3681232%" x2="0%" y2="100%" id="linearGradient-1">
            <stop stop-color="#006F84" offset="0%" />
            <stop stop-color="#00B875" offset="100%" />
        </linearGradient>
    </defs>
    <g id="bazzite-logo-le" stroke="none" stroke-width="1" fill="none" fill-rule="evenodd">
        <g id="Group_Icon_Symbol" fill-rule="nonzero">
            <circle id="Icon_BG_Circle" fill="url(#linearGradient-1)" cx="250" cy="250" r="250" />
            <path d="M249.705715,99.4994879 C255.874804,99.4728404 261.874722,101.03043 267.115291,104.002544 C272.204065,106.888569 276.576735,111.108401 279.692972,116.505883 L362.474565,259.887009 C357.491909,253.455243 350.238641,249.874935 342.476402,249.874935 L278.17408,249.874935 L250.060661,201.180935 L221.947241,249.874935 L157.644689,249.874935 C149.86589,249.874935 142.599157,253.471246 137.877859,259.489891 L220.428246,116.505883 C226.690191,105.659875 238.025528,99.5692215 249.705715,99.4994879 Z" id="Icon_Shape_Top" stroke="#979797" stroke-width="0.25" fill="#FFFFFF" opacity="0.400000006" />
            <path d="M364.127039,262.499935 L414.426226,349.620724 L414.426226,349.620724 C423.849585,365.942459 418.257346,386.81298 401.935609,396.236339 C385.613874,405.659698 364.74335,400.067459 355.319991,383.745724 L325.733161,332.499935 L174.387911,332.499935 L144.801226,383.745724 C135.377867,400.067459 114.507345,405.659698 98.1856089,396.236339 C81.8638733,386.81298 76.2716335,365.942459 85.694992,349.620724 L135.994038,262.499963 C140.459853,254.76492 148.713038,249.999935 157.644689,249.999935 L342.476402,249.999935 C351.408043,249.999935 359.66122,254.764909 364.127039,262.499935 Z" id="Icon_Shape_Bottom" fill="#FFFFFF" opacity="0.800000012" />
            <path d="M330.187339,283.687339 L317.042972,283.687339 C313.433702,283.687339 310.5,286.623946 310.5,290.25 C310.5,293.898648 313.430152,296.812661 317.042972,296.812661 L330.187339,296.812661 L330.187339,309.957028 C330.187339,313.566622 333.123946,316.5 336.75,316.5 C340.398648,316.5 343.312661,313.570172 343.312661,309.957028 L343.312661,296.812661 L356.457028,296.812661 C360.066622,296.812661 363,293.876054 363,290.25 C363,286.601352 360.069848,283.687339 356.457028,283.687339 L343.312661,283.687339 L343.312661,270.542972 C343.312661,266.933378 340.376054,264 336.75,264 C333.101352,264 330.187339,266.930152 330.187339,270.542972 L330.187339,283.687339 Z" id="Icon_Deco_Plus" fill="#FFFFFF" />
            <path d="M164.25,316.5 C149.752382,316.5 138,304.747296 138,290.25 C138,275.752704 149.752705,264 164.25,264 C178.747618,264 190.5,275.752704 190.5,290.25 C190.5,304.747617 178.747295,316.5 164.25,316.5 Z" id="Icon_Deco_Dot" fill="#FFFFFF" />
        </g>
    </g>
</svg>