<?xml version="1.0" encoding="UTF-8"?>
<svg width="1009px" height="270px" viewBox="131 133 1009 270" version="1.1" xmlns="http://www.w3.org/2000/svg" xmlns:xlink="http://www.w3.org/1999/xlink">
    <title>AeroCoreLogo_WhiteText</title>
    <defs>
        <linearGradient x1="73.6318768%" y1="26.3681232%" x2="0%" y2="100%" id="grad_Primary">
            <stop stop-color="#006F84" offset="0%"></stop>
            <stop stop-color="#00B875" offset="100%"></stop>
        </linearGradient>
    </defs>
    <g id="Root_AeroCore_White" stroke="none" stroke-width="1" fill="none" fill-rule="evenodd">
        <g id="Group_Main_Container" transform="translate(131, 153)">
            <g id="Group_Icon_Symbol">
                <circle id="Icon_BG_Circle" fill="url(#grad_Primary)" cx="115" cy="115" r="115"></circle>
                <path d="M114.864629,45.7699231 C117.70241,45.7575066 120.462372,46.4739976 122.873034,47.8411701 C125.21387,49.1687417 127.225298,51.1098643 128.658767,53.5927063 L166.7383,119.548024 C164.446278,116.589412 161.109775,114.94247 157.539145,114.94247 L127.960077,114.94247 L115.027904,92.5432299 L102.095731,114.94247 L72.5165569,114.94247 C68.9383095,114.94247 65.5956122,116.596773 63.4238152,119.36535 L101.396993,53.5927062 C104.277488,48.6035427 109.491743,45.8018419 114.864629,45.7699231 Z" id="Icon_Shape_Top" stroke="#979797" stroke-width="0.115" fill="#FFFFFF" opacity="0.400000006"></path>
                <path d="M167.498438,120.749972 L190.636064,160.825533 L190.636064,160.825533 C194.970809,168.333531 192.398379,177.933971 184.89038,182.268716 C177.382382,186.603461 167.781941,184.031031 163.447196,176.523033 L149.837254,152.94997 L80.218439,152.94997 L66.6085639,176.523033 C62.273819,184.031031 52.6733786,186.603461 45.1653801,182.268716 C37.6573817,177.933971 35.0849514,168.333531 39.4196963,160.825533 L62.5572574,120.749983 C64.6115326,117.191863 68.4079974,114.99997 72.5165569,114.99997 L157.539145,114.99997 C161.6477,114.99997 165.444161,117.191858 167.498438,120.749972 Z" id="Icon_Shape_Bottom" fill="#FFFFFF" opacity="0.800000012"></path>
                <path d="M151.886176,130.496176 L145.839767,130.496176 C144.179503,130.496176 142.83,131.847015 142.83,133.515 C142.83,135.193378 144.17787,136.533824 145.839767,136.533824 L151.886176,136.533824 L151.886176,142.580233 C151.886176,144.240646 153.237015,145.59 154.905,145.59 C156.583378,145.59 157.923824,144.242279 157.923824,142.580233 L157.923824,136.533824 L163.970233,136.533824 C165.630646,136.533824 166.98,135.182985 166.98,133.515 C166.98,131.836622 165.63213,130.496176 163.970233,130.496176 L157.923824,130.496176 L157.923824,124.449767 C157.923824,122.789354 156.572985,121.44 154.905,121.44 C153.226622,121.44 151.886176,122.78787 151.886176,124.449767 L151.886176,130.496176 Z" id="Icon_Deco_Plus" fill="#FFFFFF" fill-rule="nonzero"></path>
                <path d="M75.555,145.59 C68.8860959,145.59 63.48,140.183756 63.48,133.515 C63.48,126.846244 68.8862444,121.44 75.555,121.44 C82.2239041,121.44 87.63,126.846244 87.63,133.515 C87.63,140.183904 82.2237556,145.59 75.555,145.59 Z" id="Icon_Deco_Dot" fill="#FFFFFF" fill-rule="nonzero"></path>
            </g>
            <g id="Group_Text_Logotype" transform="translate(249, 55)" fill="#FFFFFF">
                <path d="M83.3127642,77.1178173 C75.2815486,57.3796211 67.3524172,37.892275 59.23062,17.9322434 C51.1591459,37.909537 43.2724297,57.429938 35.3177772,77.1178173 L83.3127642,77.1178173 Z M26.1438667,56.4008281 C33.5614992,38.7601503 40.9873992,21.1235126 48.3953265,3.47879478 C49.8011397,0.130331091 49.7691486,0.132534752 53.2914097,0.124087383 C57.9017293,0.112701799 62.5142056,0.144287614 67.1212902,0.00251872244 C68.5943207,-0.0426563388 69.2075442,0.518175519 69.7539099,1.82053948 C80.2038718,26.7193438 90.6858248,51.6038242 101.186829,76.4802246 C105.013236,85.5447172 110.924679,99.5776887 118.921161,118.579139 L118.921877,118.578838 C119.136086,119.087888 118.89707,119.674207 118.388019,119.888416 C118.266108,119.939717 118.135231,119.966323 118.002967,119.966694 L111.833051,119.965812 L111.833051,119.965812 C105.490776,119.988604 102.316726,120 102.3109,120 C101.628187,119.99261 100.791073,119.203345 100.530112,118.607622 C96.8141063,110.125361 93.2062958,101.593519 89.4856176,93.1138291 C89.269947,92.6224125 88.310572,92.2048187 87.6955512,92.202615 C72.3049342,92.1453198 56.9143172,92.1519308 41.5237002,92.1387088 C37.9306271,92.1357706 34.3371947,92.133567 30.7452,92.0612134 C29.7074647,92.0402786 29.2211274,92.3579732 28.7897861,93.3955305 C25.256382,101.893217 21.6453364,110.357848 18.0026591,118.807788 C17.786629,119.308754 17.0968424,119.922473 16.6194913,119.929452 C13.1892194,119.980464 7.9823162,120.00269 0.998781717,119.996131 L0.998781717,119.996131 C0.446497377,119.995458 -0.000672089547,119.547197 7.58321357e-07,118.994913 C0.000162122448,118.862463 0.0266339959,118.731364 0.0778793675,118.609229" id="Char_W_A"></path>
                <path d="M743.897267,65.9992853 C743.802219,55.0047342 733.069736,40.4329326 714.191754,40.6115059 C698.732611,40.7575456 684.1728,53.027414 684.53957,65.9992853 L743.897267,65.9992853 Z M696.209114,99.5139592 C707.962097,108.157415 725.957072,107.07983 736.162798,97.0779152 C737.275425,95.9875647 739.070118,93.8106092 741.546875,90.5470485 L741.543818,90.5447379 C741.731764,90.2960549 742.024926,90.1492381 742.336639,90.14769 L757.734611,90.1067171 C758.286896,90.1069616 758.734413,90.554875 758.734168,91.1071597 C758.734108,91.243261 758.706266,91.3779175 758.652347,91.5028828 C757.546494,94.0936092 756.63239,95.9933041 755.910726,97.2022659 C747.308487,111.612484 734.260017,118.740597 717.732487,119.872766 C709.336307,120.447888 701.202055,119.087983 693.548486,115.49302 C675.825958,107.168755 665.352863,88.3542097 667.212473,68.5766698 C668.779683,51.9053661 676.6901,39.2736518 691.50023,31.3762999 C702.625241,25.4443393 714.571222,24.7925827 726.770062,27.6132463 C739.934259,30.6573072 749.669459,38.2022117 755.890048,50.078062 C760.376185,58.6423528 761.451827,67.9310585 760.844534,77.4753337 C760.747309,79.0040517 759.725357,78.7531814 758.787934,78.7517355 C747.06216,78.7318538 735.336023,78.7286005 723.610248,78.6758237 C710.978249,78.6190707 698.346614,78.5135172 685.714615,78.4343521 C685.303585,78.4318217 684.892193,78.4838755 684.212343,78.5276151 C685.092084,87.484478 689.199842,94.3595517 696.209114,99.5139592 Z" id="Char_W_E_2"></path>
                <path d="M198.897267,65.9992853 C198.802219,55.0047342 188.069736,40.4329326 169.191754,40.6115059 C153.732611,40.7575456 139.1728,53.027414 139.53957,65.9992853 L198.897267,65.9992853 Z M151.209114,99.5139592 C162.962097,108.157415 180.957072,107.07983 191.162798,97.0779152 C192.275425,95.9875647 194.070118,93.8106092 196.546875,90.5470485 L196.543818,90.5447379 C196.731764,90.2960549 197.024926,90.1492381 197.336639,90.14769 L212.734611,90.1067171 C213.286896,90.1069616 213.734413,90.554875 213.734168,91.1071597 C213.734108,91.243261 213.706266,91.3779175 213.652347,91.5028828 C212.546494,94.0936092 211.63239,95.9933041 210.910726,97.2022659 C202.308487,111.612484 189.260017,118.740597 172.732487,119.872766 C164.336307,120.447888 156.202055,119.087983 148.548486,115.49302 C130.825958,107.168755 120.352863,88.3542097 122.212473,68.5766698 C123.779683,51.9053661 131.6901,39.2736518 146.50023,31.3762999 C157.625241,25.4443393 169.571222,24.7925827 181.770062,27.6132463 C194.934259,30.6573072 204.669459,38.2022117 210.890048,50.078062 C215.376185,58.6423528 216.451827,67.9310585 215.844534,77.4753337 C215.747309,79.0040517 214.725357,78.7531814 213.787934,78.7517355 C202.06216,78.7318538 190.336023,78.7286005 178.610248,78.6758237 C165.978249,78.6190707 153.346614,78.5135172 140.714615,78.4343521 C140.303585,78.4318217 139.892193,78.4838755 139.212343,78.5276151 C140.092084,87.484478 144.199842,94.3595517 151.209114,99.5139592 Z" id="Char_W_E_1"></path>
                <path d="M491.683211,31.0011732 L477.139717,31.0141312 C476.806923,31.013771 476.496114,30.8478783 476.310595,30.5715915 C475.918648,29.9860374 475.612781,29.5282525 475.393075,29.1981841 C474.885253,28.4352768 474.357944,27.6753323 473.760193,26.9772687 C467.820235,20.0385481 460.229595,16.2095898 451.26267,15.3804163 C440.725811,14.4058119 431.119694,17.0528723 422.997404,24.0769703 C416.918461,29.3334672 412.83177,36.0052027 410.794141,43.8664331 C407.685355,55.8579749 407.363793,67.9280205 411.364377,79.7053954 C419.58242,103.89939 443.92785,110.007852 460.516499,101.398122 C466.098094,98.50108 470.279824,94.1598575 473.438631,88.7644414 C473.71817,88.2870959 473.960873,87.8729798 474.16674,87.5220933 L474.165684,87.5214768 C474.344459,87.2153044 474.671986,87.0266823 475.026529,87.025718 L490.501653,87.0013529 C491.053933,86.9992831 491.503323,87.4453173 491.505393,87.9975982 C491.505874,88.1259531 491.48164,88.2532003 491.434014,88.3723933 C490.288471,91.2241519 489.3635,93.2702381 488.6585,94.5104112 C477.879397,113.476489 461.204998,121.390537 440.186302,119.80165 C419.555981,118.242066 404.528692,107.450872 396.632925,88.1476261 C388.508135,68.2843625 389.048358,48.0387097 399.062144,28.8845125 C409.050205,9.77915402 428.074862,-1.51128039 451.719288,0.163707958 C463.404837,0.991434381 473.870571,4.81915035 482.529893,12.9131549 C487.295763,17.3678886 490.667349,22.969513 492.644652,29.7180283 L492.644119,29.7181854 C492.800409,30.2478946 492.497693,30.8040069 491.967984,30.960297 C491.875526,30.9875765 491.77961,31.001344 491.683211,31.001172 Z" id="Char_W_C"></path>
                <path d="M513.333355,73.8699387 C513.525393,75.2714416 513.703259,77.8018024 514.234023,80.2527171 C519.272379,103.517087 543.48944,110.552769 559.148382,101.299094 C568.817633,95.5851079 573.77308,86.488159 574.690046,75.2389409 C575.472728,65.638231 573.026184,56.8699004 566.380302,49.8414411 C558.636398,41.6512621 548.919669,39.3177111 538.116611,41.2088913 C528.895923,42.8234544 521.886514,47.7924519 517.240384,56.0743552 C514.35449,61.2188566 513.535314,66.9147866 513.333355,73.8699387 M546.33388,26.0000016 C556.675974,26.1036444 568.110066,29.3724936 577.220562,38.4658313 C586.920638,48.147793 591.440278,60.1640279 590.966205,73.9876635 C590.168642,97.2260327 573.904885,116.102807 551.35452,119.440629 C524.677805,123.389105 502.873273,105.942723 498.076206,82.6140743 C494.131265,63.4299882 501.171854,45.2693134 516.884652,34.1031526 C524.098146,28.9770683 534.138365,25.9974754 546.33388,26.0000016" id="Char_W_O_1"></path>
                <path d="M304.333355,73.8699387 C304.525393,75.2714416 304.703259,77.8018024 305.234023,80.2527171 C310.272379,103.517087 334.48944,110.552769 350.148382,101.299094 C359.817633,95.5851079 364.77308,86.488159 365.690046,75.2389409 C366.472728,65.638231 364.026184,56.8699004 357.380302,49.8414411 C349.636398,41.6512621 339.919669,39.3177111 329.116611,41.2088913 C319.895923,42.8234544 312.886514,47.7924519 308.240384,56.0743552 C305.35449,61.2188566 304.535314,66.9147866 304.333355,73.8699387 M337.33388,26.0000016 C347.675974,26.1036444 359.110066,29.3724936 368.220562,38.4658313 C377.920638,48.147793 382.440278,60.1640279 381.966205,73.9876635 C381.168642,97.2260327 364.904885,116.102807 342.35452,119.440629 C315.677805,123.389105 293.873273,105.942723 289.076206,82.6140743 C285.131265,63.4299882 292.171854,45.2693134 307.884652,34.1031526 C315.098146,28.9770683 325.138365,25.9974754 337.33388,26.0000016" id="Char_W_O_2"></path>
                <path d="M659.997819,42.0093636 C649.952499,42.008574 643.873046,42.0103061 641.759459,42.01456 C630.723875,42.0367702 623.020688,49.6296699 622.991883,61.1507526 C623.005106,63.6796505 623.015872,82.9594201 623.024182,118.990061 C623.024327,119.542346 622.576729,119.990179 622.024444,119.990323 C622.023872,119.990323 622.023299,119.990323 622.022727,119.990322 L607.001623,119.999394 C606.449574,120.000231 606.001278,119.553562 606.000109,119.001513 C606.004244,94.2397496 606.006076,75.9048313 606.005602,63.996758 C606.005242,53.603616 608.861521,44.2489265 616.082559,36.7872027 C622.144225,30.5235205 629.665014,27.0784953 638.1182,26.4599942 C642.860333,26.1129793 650.154524,25.9623028 660.000775,26.0079646 L660.000775,26.0079557 C660.552745,26.0090174 660.999469,26.4571028 660.998851,27.0090732 L660.99986,41.0057795 C661.001839,41.5580607 660.555731,42.0073777 660.00345,42.0093572 C660.001573,42.0093639 659.999696,42.0093654 659.997819,42.0093615 Z" id="Char_W_R_2"></path>
                <path d="M282.997819,42.0093636 C272.952499,42.008574 266.873046,42.0103061 264.759459,42.01456 C253.723875,42.0367702 246.020688,49.6296699 245.991883,61.1507526 C246.005106,63.6796505 246.015872,82.9594201 246.024182,118.990061 C246.024327,119.542346 245.576729,119.990179 245.024444,119.990323 C245.023872,119.990323 245.023299,119.990323 245.022727,119.990322 L230.001623,119.999394 C229.449574,120.000231 229.001278,119.553562 229.000109,119.001513 C229.004244,94.2397496 229.006076,75.9048313 229.005602,63.996758 C229.005242,53.603616 231.861521,44.2489265 239.082559,36.7872027 C245.144225,30.5235205 252.665014,27.0784953 261.1182,26.4599942 C265.860333,26.1129793 273.154524,25.9623028 283.000775,26.0079646 L283.000775,26.0079557 C283.552745,26.0090174 283.999469,26.4571028 283.998851,27.0090732 L283.99986,41.0057795 C284.001839,41.5580607 283.555731,42.0073777 283.00345,42.0093572 C283.001573,42.0093639 282.999696,42.0093654 282.997819,42.0093615 Z" id="Char_W_R_1"></path>
            </g>
        </g>
    </g>
</svg>

